<?xml version="1.0" standalone="no"?>
<!DOCTYPE svg PUBLIC "-//W3C//DTD SVG 1.1//EN" "http://www.w3.org/Graphics/SVG/1.1/DTD/svg11.dtd" >
<svg xmlns="http://www.w3.org/2000/svg">
<metadata></metadata>
<defs>
<font id="yanone_kaffeesatz_thinregular" horiz-adv-x="911" >
<font-face units-per-em="2048" ascent="1638" descent="-410" />
<missing-glyph horiz-adv-x="378" />
<glyph unicode="&#xfb01;" horiz-adv-x="802" d="M23 961q0 46 3 54.5t21 8.5h143v135q0 70 11 125.5t28.5 92.5t45.5 63.5t54.5 41t63 22.5t64 10t63.5 2q82 0 133.5 -15t51.5 -39q0 -8 -11 -41q-82 29 -176 29q-42 0 -72.5 -4t-68.5 -21.5t-62 -47.5t-40.5 -87.5t-16.5 -136.5v-129h199q0 -45 -3 -54t-20 -9h-176v-938 q1 -23 -22 -23h-46v961h-167zM602 0v987q0 26 12 31.5t56 5.5v-1001q0 -17 -8.5 -20t-59.5 -3z" />
<glyph unicode="&#xfb02;" horiz-adv-x="823" d="M20 961q0 45 3.5 54t21.5 9h143v135q0 70 11 125.5t28 91.5t43.5 62.5t50.5 40t56 21.5t54 9.5t50 1.5q121 0 207 -45v-1443q1 -23 -22 -23h-45v1425q-65 23 -138 23q-25 0 -39.5 -0.5t-41.5 -6t-44 -16t-38.5 -32t-34 -51.5t-21 -77.5t-8.5 -107.5v-133h238 q0 -45 -3 -54t-20 -9h-215v-938q0 -23 -23 -23h-45v961h-168z" />
<glyph horiz-adv-x="0" />
<glyph unicode="&#xd;" horiz-adv-x="2048" />
<glyph unicode=" "  horiz-adv-x="378" />
<glyph unicode="&#x09;" horiz-adv-x="378" />
<glyph unicode="&#xa0;" horiz-adv-x="378" />
<glyph unicode="!" horiz-adv-x="376" d="M123 63q0 29 17 49.5t46 20.5q31 0 49.5 -20.5t18.5 -49.5q0 -32 -18.5 -51.5t-49.5 -19.5q-63 0 -63 71zM154 1427q-1 7 3.5 11t14.5 6t23 3t34 1l-4 -1065q-2 -31 -67 -31z" />
<glyph unicode="&#x22;" horiz-adv-x="460" d="M80 1505q0 98 6 101q4 1 15.5 1.5t22.5 0l22 -1t12 -0.5q4 -71 -7 -236t-18 -172q-3 -3 -13 -3.5t-19 0.5l-9 1q-12 58 -12 309zM303 1505q0 98 6 101q4 1 15.5 1.5t22.5 0l22 -1t12 -0.5q4 -73 -7.5 -237.5t-19.5 -170.5q-2 -3 -11.5 -3.5t-18.5 0.5l-9 1 q-12 58 -12 309z" />
<glyph unicode="#" d="M94 422q0 42 3 51.5t20 9.5h125l16 287h-164q0 43 3 52t20 9h143l10 166q1 16 12.5 19.5t53.5 3.5l-10 -189h262l10 166q1 16 12.5 19.5t53.5 3.5l-11 -189h162v-6q0 -38 -3 -46.5t-19 -8.5h-144l-14 -287h180v-6q0 -38 -3 -46.5t-19 -8.5h-162l-8 -180q-1 -16 -12 -19.5 t-54 -3.5l10 203h-264l-8 -180q-1 -16 -12 -19.5t-54 -3.5l11 203h-146zM307 483h262l17 287h-264z" />
<glyph unicode="$" d="M158 70q0 8 10 25t22 22q72 -64 232 -64q270 0 270 258q0 73 -35 137t-120 142l-230 201q-71 66 -106 122t-35 119q0 96 74 158.5t204 71.5v208q0 24 13 30.5t49 6.5v-243q71 -2 127 -17t78 -28.5t22 -18.5q0 -12 -6 -29t-16 -24q-30 21 -89 37t-139 16 q-117 0 -183.5 -42t-66.5 -130q0 -82 121 -194l256 -224q84 -74 117 -142.5t33 -156.5q0 -296 -281 -321v-203q0 -22 -12 -28.5t-49 -6.5v234q-52 0 -97 7t-74 17t-50 22t-30 21.5t-9 16.5z" />
<glyph unicode="%" horiz-adv-x="1492" d="M152 1071q0 193 75.5 286t214.5 93q92 0 150 -33t90.5 -118t32.5 -228q0 -185 -73.5 -280t-207.5 -95q-57 0 -97 8t-77 31t-59.5 64t-35.5 109t-13 163zM219 1061q0 -176 50 -241.5t157 -65.5q105 0 164 81t59 238q0 74 -9.5 129.5t-26 91t-43 57t-57 30t-71.5 8.5 q-223 0 -223 -328zM270 12l893 1438q43 -10 43 -33l-893 -1433q-5 0 -12 1t-19 8t-12 19zM778 358q0 193 76 286t215 93q92 0 149.5 -33t90 -118t32.5 -228q0 -185 -73 -279.5t-207 -94.5q-57 0 -97 7.5t-77.5 31t-59.5 64t-35.5 108.5t-13.5 163zM846 348q0 -176 50 -241.5 t157 -65.5q105 0 164 81t59 238q0 74 -9.5 129.5t-26 91t-43 57t-57 30t-71.5 8.5q-108 0 -165.5 -77t-57.5 -251z" />
<glyph unicode="&#x26;" horiz-adv-x="1069" d="M90 354q0 121 70.5 222t171.5 155q-174 282 -174 432q0 79 27.5 136t77.5 88t108 45t129 14q80 0 149 -15t103 -34t34 -33q0 -31 -16 -47q-103 67 -268 67q-45 0 -81.5 -5t-74 -19.5t-62.5 -39t-41 -66t-16 -97.5q0 -95 92.5 -263t211.5 -325.5t251 -306.5q54 131 54 295 q0 157 -61 283.5t-152 179.5q105 10 200 10q142 0 199 -4q2 -8 2 -33q0 -15 -15.5 -20.5t-66.5 -5.5l-188 4q21 -18 43 -49t47 -82t41 -128.5t16 -166.5q0 -203 -67 -340q125 -134 176 -168q-3 -14 -16 -34.5t-29 -20.5q-25 0 -170 155q-115 -157 -332 -157q-373 0 -373 374 zM160 348q0 -43 7 -81.5t27 -80.5t52 -72t86 -49.5t125 -19.5q189 0 286 148q-216 242 -374 481q-88 -42 -148.5 -128t-60.5 -198z" />
<glyph unicode="'" horiz-adv-x="237" d="M80 1505q0 98 6 101q4 1 15.5 1.5t22.5 0l22 -1t12 -0.5q4 -71 -7 -236t-18 -172q-3 -3 -13 -3.5t-19 0.5l-9 1q-12 58 -12 309z" />
<glyph unicode="(" horiz-adv-x="604" d="M150 662q0 136 19.5 263.5t50.5 223.5t70 180.5t77 142t72 99t55 61t26 19.5q20 0 35 -47q-41 -43 -79.5 -93t-87.5 -138t-84.5 -185.5t-60 -235.5t-24.5 -288q-1 -161 25.5 -314.5t64.5 -262.5t88 -206.5t87 -151.5t71 -91q-4 -20 -16.5 -33t-24.5 -13t-50.5 44.5 t-92 138t-103 215.5t-84 301.5t-34.5 370.5z" />
<glyph unicode=")" horiz-adv-x="604" d="M49 -362q35 39 72 92.5t87 151t88 206t64.5 261.5t26.5 315q0 149 -24.5 286.5t-60 235.5t-84.5 186t-88.5 139t-80.5 93q15 47 37 47q8 0 44.5 -37.5t92 -120.5t107 -193.5t88.5 -280.5t37 -357q0 -138 -18.5 -270.5t-48 -236t-66.5 -196t-74 -158.5t-70.5 -114 t-56 -71.5t-29.5 -23.5q-14 0 -26.5 13t-16.5 33z" />
<glyph unicode="*" horiz-adv-x="968" d="M51 1069q-3 30 19 53.5t41 14.5l303 -152q2 -16 -5 -26.5t-20 -4.5zM168 590l244 291q10 9 20 5t19 -16l-213 -319q-10 -14 -24 -8.5t-26.5 19t-19.5 28.5zM440 1376q0 16 24.5 18t53.5 -12l-18 -350q-3 -23 -39 -18zM508 860q-12 21 22 33l228 -311q12 -17 -8 -36 t-50 -24zM541 975.5q1 14.5 18 21.5l330 142q23 -12 30 -42t-14 -36l-352 -113q-13 13 -12 27.5z" />
<glyph unicode="+" d="M98 543q0 25 0.5 34.5t2.5 19t6.5 11.5t13.5 2h305v303q0 16 11 19.5t55 3.5v-326h323v-7q0 -39 -3 -49.5t-19 -10.5h-301v-301q0 -16 -11.5 -19.5t-54.5 -3.5v324h-328z" />
<glyph unicode="," horiz-adv-x="360" d="M104 -203q65 110 62 207q-33 18 -33 66q0 29 17 46t45 17q30 0 44.5 -16.5t14.5 -59.5q0 -54 -23.5 -124.5t-51 -117t-42.5 -46.5q-11 0 -21.5 9t-11.5 19z" />
<glyph unicode="-" horiz-adv-x="614" d="M98 543q0 25 0.5 34.5t2.5 19t6.5 11.5t13.5 2h395v-7q0 -39 -3 -49.5t-19 -10.5h-396z" />
<glyph unicode="." horiz-adv-x="360" d="M121 63q0 29 17.5 49.5t45.5 20.5q31 0 50.5 -20.5t19.5 -49.5q0 -31 -19.5 -51t-50.5 -20q-30 0 -46.5 19t-16.5 52z" />
<glyph unicode="/" horiz-adv-x="579" d="M20 -41l465 1583q4 18 16.5 21.5t57.5 3.5l-461 -1585q-6 -16 -20 -19.5t-58 -3.5z" />
<glyph unicode="0" d="M86 606q0 310 91.5 466.5t293.5 156.5q194 0 273 -146t79 -469q0 -317 -87.5 -473.5t-284.5 -156.5q-192 0 -278.5 148t-86.5 474zM156 588q0 -284 71.5 -412.5t221.5 -128.5q165 0 236 142.5t71 431.5q0 287 -62.5 415.5t-220.5 128.5q-167 0 -242 -145t-75 -432z" />
<glyph unicode="1" d="M86 59q0 3 152 5t198 2l31 1089l-295 -57q-8 16 -8 59q0 3 169 38.5t179 35.5l23 -6l-25 -1159h207l106 4q0 -70 -4 -70h-731q-2 4 -2 59z" />
<glyph unicode="2" d="M86 35q0 14 4.5 23.5t18.5 28t24 34.5q50 78 131 170.5t152.5 168t139 158t107 172.5t39.5 181q0 95 -44.5 143.5t-168.5 48.5q-228 0 -348 -86q-8 27 -8 53q0 15 39.5 37.5t125 42t187.5 19.5q88 0 145.5 -16.5t88 -52.5t42 -80.5t11.5 -112.5q0 -97 -40.5 -192.5 t-110 -183.5t-143.5 -167t-161.5 -177.5t-142.5 -180.5h467l182 2q0 -68 -6 -68h-723q-8 8 -8 35z" />
<glyph unicode="3" d="M106 -123q0 18 11 57q48 -38 100 -55.5t131 -17.5q169 0 276 132t107 329q0 45 -10.5 81.5t-27 61t-44.5 43.5t-54 29.5t-66 18.5t-69.5 11t-74.5 6l-2 54q299 185 299 364q0 21 -4.5 41.5t-18.5 45t-36 42.5t-61.5 30.5t-90.5 12.5q-122 0 -202.5 -22.5t-143.5 -67.5 q-8 16 -8 51q0 12 14.5 26t45 28t71 25.5t98.5 18.5t123 7q85 0 144 -19.5t88.5 -55.5t41 -74t11.5 -87q0 -56 -22 -109.5t-62.5 -100.5t-82 -84t-95.5 -76q49 -4 92 -15t84 -34.5t69.5 -57t46 -85t17.5 -116.5q0 -148 -55 -265.5t-161 -186t-245 -68.5q-73 0 -129.5 15.5 t-80.5 33.5t-24 33z" />
<glyph unicode="4" d="M96 393q0 72 65.5 224t179.5 326t230 280q14 12 37 12q15 0 35 -10l-6 -803h194q1 0 1.5 -1.5t1.5 -8.5t0 -19q0 -37 -21 -37h-176v-323q0 -25 -7.5 -29t-60.5 -4v356h-460q-13 13 -13 37zM162 422h407l13 721q-131 -139 -253 -334.5t-167 -386.5z" />
<glyph unicode="5" d="M88 -125q0 32 10 57q84 -71 240 -71q110 0 189 39.5t123.5 114.5t64.5 169t20 215q0 82 -28.5 144t-70 96t-99 55t-104.5 27t-97 6q-120 0 -225 -35l53 537h627q0 -44 -7.5 -55t-38.5 -11l-520 2l-43 -391l4 1q3 1 9.5 2t16 2.5t23 3t29.5 2.5t37.5 2t44.5 1 q58 2 113.5 -4.5t120.5 -31t113 -65.5t80 -115.5t32 -174.5q0 -112 -14.5 -202t-48.5 -166t-88 -126.5t-135 -79t-187 -28.5q-46 0 -86.5 5.5t-68.5 14.5t-49 20t-30.5 21.5t-9.5 18.5z" />
<glyph unicode="6" d="M92 588q0 180 25 324t68 240.5t104 160.5t129.5 92.5t146.5 28.5q95 0 160.5 -14t65.5 -38q0 -28 -7 -49q-51 19 -97.5 27t-133.5 8q-160 0 -273.5 -179.5t-123.5 -518.5q51 109 141.5 167t208.5 58q147 0 234 -98.5t87 -300.5q0 -249 -96.5 -381.5t-294.5 -132.5 q-86 0 -148 30t-99.5 80t-59.5 130.5t-29.5 165.5t-7.5 200zM156 573q0 -93 5.5 -163t23 -141.5t47.5 -117.5t81.5 -75t122.5 -29q157 0 241.5 115.5t84.5 316.5q0 350 -270 350q-106 0 -194 -66.5t-142 -189.5z" />
<glyph unicode="7" d="M119 1229h737q-434 -603 -610 -1397q-68 0 -68 14q97 428 250 766.5t311 552.5h-35.5t-91 -0.5t-128 -1t-162.5 -0.5h-179q-24 0 -24 66z" />
<glyph unicode="8" d="M94 369q0 133 82.5 243.5t202.5 163.5q-96 45 -133 72q-68 44 -102.5 112.5t-34.5 145.5q0 86 29 152.5t79.5 106.5t113 60.5t134.5 20.5q48 0 91 -6.5t92 -27.5t83.5 -55.5t58 -96.5t23.5 -144q0 -52 -16.5 -99.5t-41.5 -82.5t-62.5 -68.5t-70.5 -56t-75 -45.5 q88 -45 141 -88q70 -58 106.5 -128.5t36.5 -178.5q0 -185 -90 -286t-266 -101q-187 0 -284 104.5t-97 282.5zM160 369q0 -143 80.5 -232.5t232.5 -89.5q141 0 218 88t77 234q0 93 -37 156t-104 118q-47 38 -168 96q-124 -38 -211.5 -141.5t-87.5 -228.5zM174 1108 q0 -139 139 -229q28 -20 160 -78q119 49 198 130t79 183q0 266 -283 266q-59 0 -110.5 -16t-93 -47.5t-65.5 -85t-24 -123.5z" />
<glyph unicode="9" d="M86 727q0 259 96 390.5t297 131.5q86 0 147 -26t99 -72.5t60 -125t30 -169t8 -219.5q0 -848 -518 -848q-164 0 -164 35t6 47q65 -16 154 -16q430 0 457 694q-112 -219 -342 -219q-144 0 -237 100t-93 297zM154 743q0 -176 75 -262t203 -86q97 0 181.5 64.5t146.5 181.5 q0 68 -2 120.5t-9 111.5t-19.5 102t-33.5 84.5t-50 67.5t-71.5 41.5t-95.5 15.5q-160 0 -242.5 -111t-82.5 -330z" />
<glyph unicode=":" horiz-adv-x="360" d="M119 63q0 29 17.5 49.5t47.5 20.5t49 -20.5t19 -49.5q0 -31 -19.5 -51t-48.5 -20q-32 0 -48.5 19t-16.5 52zM119 793q0 29 17.5 49t47.5 20t49 -19.5t19 -49.5q0 -31 -19.5 -51.5t-48.5 -20.5q-32 0 -48.5 19.5t-16.5 52.5z" />
<glyph unicode=";" horiz-adv-x="360" d="M100 -203q64 108 64 207q-35 18 -35 66q0 29 16.5 46t44.5 17q30 0 46 -16.5t16 -59.5q0 -55 -23.5 -125t-51.5 -116.5t-44 -46.5q-9 0 -19.5 9t-13.5 19zM125 793q0 29 17.5 49t47.5 20t49 -19.5t19 -49.5q0 -31 -19.5 -51.5t-48.5 -20.5q-32 0 -48.5 19.5t-16.5 52.5z " />
<glyph unicode="&#x3c;" horiz-adv-x="819" d="M98 535q0 25 27 40l557 277q23 -26 23 -47q0 -19 -15 -25l-502 -248l525 -225q0 -25 -11 -40t-22 -15q-8 0 -43 12l-524 230q-15 21 -15 41z" />
<glyph unicode="=" d="M98 375q0 25 0.5 34.5t2.5 19t6.5 11.5t13.5 2h694v-7q0 -39 -3 -49.5t-19 -10.5h-695zM98 711q0 25 0.5 34.5t2.5 19t6.5 11.5t13.5 2h694v-7q0 -39 -3 -49.5t-19 -10.5h-695z" />
<glyph unicode="&#x3e;" horiz-adv-x="819" d="M104 786q1 27 11.5 42.5t21.5 15.5q5 0 43 -15l527 -229q12 -14 12 -41q0 -28 -25 -39l-559 -276q-22 25 -22 45q0 15 14 26l502 246z" />
<glyph unicode="?" horiz-adv-x="606" d="M59 1372q0 24 73 53t159 29q43 0 80.5 -7t76.5 -27t67 -51.5t45.5 -84.5t17.5 -123q0 -80 -30.5 -159t-67 -128.5t-85.5 -111t-67 -92.5q-49 -83 -49 -176q0 -25 3.5 -50.5t6 -38t0.5 -14.5q-11 -16 -60 -6q-18 41 -18 109q0 103 57 202q22 36 69.5 97t81 106.5 t61.5 115.5t28 142q0 229 -223 229q-131 0 -219 -67q-7 28 -7 53zM199 63q0 29 17 49.5t46 20.5q31 0 49.5 -20.5t18.5 -49.5q0 -31 -19 -51t-49 -20q-63 0 -63 71z" />
<glyph unicode="@" horiz-adv-x="1572" d="M119 543q0 862 727 862q318 0 465 -164.5t147 -523.5q0 -141 -15 -254.5t-37.5 -186t-55.5 -126t-62 -80.5t-64 -42.5t-55 -18.5t-41 -3q-80 0 -129 53q-82 -57 -233 -57q-59 -2 -102.5 9t-82 42t-57.5 94.5t-16 157.5q2 76 21 133.5t49.5 93.5t75 58.5t92.5 31.5t108 9 q81 0 129 -13q2 79 4 134q4 112 -46 152t-150 40q-146 0 -234 -49q-6 15 -6 39q0 18 18 31q81 43 246 43q122 0 181 -56.5t55 -189.5l-17 -465q-6 -156 -10 -186v-2q40 -43 102 -43q15 0 32.5 4t44.5 20.5t51.5 42.5t50.5 76t45 116t31 167.5t12 224.5q0 330 -129 478 t-422 148q-120 0 -218 -26t-181 -85.5t-139.5 -151.5t-88 -230t-31.5 -315q0 -129 10.5 -236t28.5 -188.5t47 -146.5t60.5 -110t76 -77.5t87 -52t98.5 -30.5t105.5 -14.5t113.5 -3.5q88 0 164.5 11t137 32.5t96 38t81.5 41.5q4 -4 11.5 -23.5t7.5 -35.5q0 -7 -22 -21.5 t-66.5 -32.5t-101.5 -33.5t-137.5 -26.5t-164.5 -11q-71 0 -123.5 3t-116 14t-109.5 30.5t-96.5 54t-86 82.5t-69 118t-53.5 159t-32 207t-12 260zM569 303q-2 -63 8.5 -108t29 -71.5t47.5 -41.5t58 -20t68 -5q61 0 123.5 24.5t63.5 51.5l14 432q-62 10 -127 10 q-62 0 -109 -12.5t-87.5 -42t-63 -84t-25.5 -133.5z" />
<glyph unicode="A" horiz-adv-x="892" d="M18 0l404 1436q0 8 18 8q21 0 27 -6l405 -1415q1 -5 1 -9q0 -6 -3 -10q-5 -6 -22 -6q-29 0 -43 2l-119 424h-479l-111 -410q-4 -10 -11.5 -13t-25.5 -3q-23 0 -41 2zM223 487h447l-125 451q-93 338 -101 405q-6 -54 -98 -405z" />
<glyph unicode="B" horiz-adv-x="829" d="M131 0v1401q0 33 51 33h205q50 0 93.5 -7t91 -27t81 -53t55 -90.5t21.5 -132.5q0 -89 -20.5 -155.5t-54 -101.5t-65.5 -52t-67 -23q29 -1 58 -7.5t65 -27t63 -52t45.5 -87.5t18.5 -129q0 -95 -16.5 -172t-42 -127t-63 -87t-72 -56t-76.5 -30.5t-69.5 -14t-57.5 -2.5h-244 zM199 63h174q52 0 97 11t88.5 40.5t74 75.5t49 121t18.5 172q0 53 -9 94.5t-23.5 70t-39.5 48t-49.5 30.5t-62.5 17t-68.5 7.5t-76.5 1.5h-172v-689zM199 815h198q262 0 262 303q0 74 -23.5 126t-65 78.5t-87.5 38t-102 11.5h-182v-557z" />
<glyph unicode="C" horiz-adv-x="745" d="M92 641q0 154 12.5 278t33.5 207.5t52.5 145t63.5 96t74.5 54.5t77.5 26t79 6q82 0 136.5 -33t54.5 -65q0 -22 -17 -43q-12 12 -31 26.5t-60.5 32t-82.5 17.5q-37 0 -66 -5.5t-63.5 -25t-61 -51.5t-52 -89.5t-42 -135.5t-26.5 -192t-10 -257q0 -148 16.5 -257t42 -170.5 t64 -97.5t73 -46.5t78.5 -10.5q72 0 139 36.5t95 78.5q16 -24 16 -47q0 -43 -78.5 -91t-177.5 -48q-37 0 -63 3t-64.5 17.5t-65.5 39.5t-56.5 74.5t-48 117.5t-30.5 172.5t-12 236.5z" />
<glyph unicode="D" horiz-adv-x="880" d="M135 0v1401q0 33 49 33h207q199 0 298 -152.5t99 -486.5q0 -199 -23 -345t-59 -231t-92 -135.5t-111 -67t-126 -16.5h-242zM203 66h174q41 0 74 6.5t69.5 26.5t64.5 53t54 88.5t43 131t27 183.5t10 242q0 299 -80.5 435t-255.5 136h-180v-1302z" />
<glyph unicode="E" horiz-adv-x="718" d="M137 0v1411q0 23 23 23h489q0 -44 -2 -55t-12 -11h-430v-551h401q0 -42 -2.5 -52.5t-15.5 -10.5h-383v-688h446q0 -46 -2.5 -56t-15.5 -10h-496z" />
<glyph unicode="F" horiz-adv-x="694" d="M137 0v1411q0 23 23 23h489q0 -43 -2 -53.5t-12 -10.5h-430v-551h401q0 -43 -2.5 -54t-15.5 -11h-383v-731q0 -23 -23 -23h-45z" />
<glyph unicode="G" horiz-adv-x="839" d="M92 705q0 180 20.5 313.5t56 216t90.5 132.5t115.5 68.5t139.5 18.5q88 0 150.5 -25.5t62.5 -58.5q0 -22 -12 -43q-80 62 -191 62q-68 0 -120 -17t-99.5 -62.5t-78 -120.5t-48.5 -196.5t-18 -285.5q0 -124 9 -222.5t23.5 -167t38 -118.5t48.5 -79t59.5 -45.5t65.5 -22 t71 -5.5q81 0 137 33t70 65v586h-240v41q0 23 23 23h283v-680q-11 -18 -27 -36t-48.5 -43t-85 -40.5t-116.5 -15.5q-58 0 -103.5 11t-90.5 39.5t-77 81.5t-57.5 131t-38 194.5t-12.5 267.5z" />
<glyph unicode="H" horiz-adv-x="923" d="M131 0v1411q0 17 9 20t59 3v-615h526v592q0 16 9.5 19.5t58.5 3.5v-1411q0 -17 -9 -20t-59 -3v754h-526v-731q0 -17 -9 -20t-59 -3z" />
<glyph unicode="I" horiz-adv-x="329" d="M131 0v1395q0 29 9 34t59 5v-1411q0 -17 -9 -20t-59 -3z" />
<glyph unicode="J" horiz-adv-x="610" d="M43 76q0 29 18 47q68 -78 175 -78q36 0 64 10.5t46.5 25.5t31 42.5t19.5 51.5t10.5 63.5t4 66.5t0.5 72v1020q0 28 8 32.5t59 4.5v-1084q0 -42 -1 -72t-6.5 -71.5t-15 -70.5t-27.5 -60.5t-42.5 -51t-62 -32t-84.5 -12.5q-84 0 -140.5 30.5t-56.5 65.5z" />
<glyph unicode="K" horiz-adv-x="802" d="M131 0v1411q0 17 8.5 20t59.5 3v-621l483 617q14 4 43 4q22 0 27 -9t-7 -24l-481 -596q142 -77 268.5 -269.5t223.5 -506.5q3 -8 3 -13q0 -18 -26 -18q-27 0 -39 2q-72 202 -142.5 344t-121.5 210.5t-117 133.5q-46 44 -114 70v-735q0 -17 -8.5 -20t-59.5 -3z" />
<glyph unicode="L" horiz-adv-x="694" d="M131 0v1401q0 25 9 29t63 4v-1371h450v-40q0 -14 -5 -18.5t-17 -4.5h-500z" />
<glyph unicode="M" horiz-adv-x="1038" d="M131 0v1411q0 23 23 23h39l245 -801l80 -260q72 240 76 252l244 786l2 7q3 6 8 11t12 5h45v-1411q0 -17 -8 -20t-59 -3l2 670q0 237 4 553q-20 -65 -62.5 -203t-75.5 -243.5t-34 -108.5l-125 -377q-6 -19 -23 -19h-37l-122 396q-2 4 -34 103.5t-73 230.5t-65 210 q0 -443 6 -524v-665q0 -17 -9 -20t-59 -3z" />
<glyph unicode="N" horiz-adv-x="954" d="M131 0v1411q0 23 23 23h41l258 -576q4 -14 127.5 -298.5t175.5 -399.5v1251q0 17 8 20t59 3v-1411q0 -23 -22 -23h-41l-262 586q-3 6 -61 138.5t-134.5 307.5t-107.5 246q4 -348 4 -752v-503q0 -17 -8.5 -20t-59.5 -3z" />
<glyph unicode="O" horiz-adv-x="942" d="M92 727q0 387 96 557t299 170q134 0 212 -70.5t114.5 -228t36.5 -428.5q0 -272 -40.5 -435.5t-124 -237.5t-220.5 -74q-134 0 -213.5 68.5t-119.5 232.5t-40 446zM164 700q0 -240 31.5 -383t96.5 -206.5t173 -63.5q113 0 180.5 66t101 216.5t33.5 403.5q0 244 -31 387 t-94.5 204.5t-169.5 61.5q-111 0 -180.5 -65.5t-105 -217.5t-35.5 -403z" />
<glyph unicode="P" horiz-adv-x="774" d="M131 0v1411q0 23 23 23h221q93 0 161.5 -29.5t107 -83.5t56 -119t17.5 -145q0 -212 -93.5 -321t-263.5 -109h-161v-604q0 -17 -8.5 -20t-59.5 -3zM199 692h161q144 0 215.5 96.5t71.5 270.5q0 311 -276 311h-172v-678z" />
<glyph unicode="Q" horiz-adv-x="942" d="M92 727q0 387 96 557t299 170q134 0 212 -70.5t114.5 -228t36.5 -428.5q0 -252 -34.5 -410t-105.5 -238t-186 -95q21 -109 52.5 -150t87.5 -41q88 0 135 35q14 -17 14 -41q0 -23 -49 -38t-111 -15q-80 0 -127 57t-73 189q-130 3 -207 73t-115.5 233t-38.5 441zM164 700 q0 -240 31.5 -383t96.5 -206.5t173 -63.5q113 0 180.5 66t101 216.5t33.5 403.5q0 244 -31 387t-94.5 204.5t-169.5 61.5q-111 0 -180.5 -65.5t-105 -217.5t-35.5 -403z" />
<glyph unicode="R" horiz-adv-x="784" d="M131 0v1411q0 23 23 23h221q93 0 161.5 -29.5t107 -83.5t56 -119t17.5 -145q0 -172 -62 -277t-178 -139q25 -34 51.5 -79.5t62.5 -122.5t65 -185.5t42 -226.5q2 -15 -3 -20.5t-25 -6.5h-39q-18 137 -50 255t-69 194t-61 115t-45 65q-14 -2 -46 -2h-161v-604 q0 -17 -8.5 -20t-59.5 -3zM199 692h161q144 0 215.5 96.5t71.5 268.5q0 313 -276 313h-172v-678z" />
<glyph unicode="S" horiz-adv-x="776" d="M80 78q0 28 29 47q82 -78 243 -78q143 0 213 77t70 210q0 100 -36 177t-128 169l-233 223q-75 79 -112.5 145.5t-37.5 141.5q0 118 90 191t246 73q81 0 140 -13.5t84.5 -31.5t25.5 -37q0 -27 -23 -43q-31 25 -91.5 43.5t-143.5 18.5q-117 0 -187.5 -55t-70.5 -144 q0 -63 32 -117.5t95 -118.5l260 -251q89 -90 123 -171t34 -190q0 -169 -87 -266.5t-265 -97.5q-66 0 -120.5 10.5t-85.5 26.5t-47.5 32t-16.5 29z" />
<glyph unicode="T" horiz-adv-x="741" d="M10 1368v43q0 23 23 23h696v-43q0 -23 -22 -23h-308v-1348q0 -15 -8 -17.5t-57 -2.5v1368h-324z" />
<glyph unicode="U" horiz-adv-x="976" d="M131 457v954q0 17 8.5 20t59.5 3v-977q0 -51 2.5 -90.5t10 -84.5t20.5 -78t36 -64.5t54.5 -51t77.5 -31.5t104 -12q77 0 156 16t116 35v1317q0 15 11 18t59 3v-1387q-44 -26 -142.5 -46.5t-199.5 -20.5q-99 0 -169 26.5t-109 67.5t-61 108t-28 127.5t-6 147.5z" />
<glyph unicode="V" horiz-adv-x="862" d="M14 1401q-3 10 -3 17q0 16 16 16h49l274 -988q40 -142 92 -378q37 196 84 378l252 955q2 12 4 18t7 10.5t14 4.5h51l-383 -1450q-16 -4 -45 -4q-18 0 -51 118z" />
<glyph unicode="W" horiz-adv-x="1298" d="M12 1401q-1 7 -1 13q0 20 14 20h51l221 -990q35 -160 65 -346h5q17 150 57 346l184 877l4.5 16.5t6 10.5t12.5 6h51l207 -910q26 -114 63 -342h6q39 262 56 342l200 957q2 12 4 18t7 10.5t14 4.5h51l-307 -1450q-28 -7 -43 -7q-18 0 -39 97l-196 833l-58 322 q-5 -29 -19 -109.5t-24.5 -140t-11.5 -68.5l-199 -927q-16 -4 -47 -4q-18 0 -43 124z" />
<glyph unicode="X" horiz-adv-x="876" d="M23 0l372 750l-317 671q-4 9 1 11q9 2 73 2l122 -260q34 -70 69.5 -148t66.5 -149.5t34 -77.5q47 115 172 375l115 247q5 9 12 11q12 2 70 2l-326 -691l363 -723q3 -6 3 -11q0 -9 -13 -9h-68l-162 336l-172 354q-92 -196 -170 -352l-164 -328q-5 -10 -20 -10h-61z" />
<glyph unicode="Y" horiz-adv-x="733" d="M12 1421q-1 2 -1 4q0 5 8 7q11 2 67 2l115 -301q33 -83 75 -200.5t68.5 -197.5t26.5 -84q0 6 60 176.5t110 305.5l106 286q3 11 13.5 13t62.5 2l-320 -850v-561q0 -17 -8 -20t-59 -3v588z" />
<glyph unicode="Z" horiz-adv-x="817" d="M59 29q0 21 9 39l602 1300h-557v43q0 23 22 23h608q11 -11 11 -27q0 -19 -11 -41l-606 -1303h516q63 0 97 9v-49q0 -23 -23 -23h-653q-15 8 -15 29z" />
<glyph unicode="[" horiz-adv-x="901" d="M354 -403v2054q0 20 10.5 25t45.5 5h469q0 -39 -6 -49t-33 -10h-420v-1962h454q0 -30 -5 -44t-12 -16.5t-23 -2.5h-480z" />
<glyph unicode="\" horiz-adv-x="577" d="M23 1542q-4 18 6 21.5t57 3.5l469 -1606q4 -16 -7.5 -19t-55.5 -3z" />
<glyph unicode="]" horiz-adv-x="901" d="M23 -410q0 40 5.5 49t32.5 9h418v1972h-452q0 30 5.5 44t12 16.5t23.5 2.5h479v-2062q0 -20 -10.5 -25.5t-44.5 -5.5h-469z" />
<glyph unicode="^" horiz-adv-x="880" d="M133 481l311 291l283 -268q12 -10 12 -25q0 -14 -10 -25t-27 -12l-264 242l-233 -219q-29 -23 -39 -23q-29 0 -33 39z" />
<glyph unicode="_" horiz-adv-x="794" d="M39 -160q0 39 3 49.5t19 10.5h695q0 -24 -0.5 -33.5t-2.5 -19t-6.5 -11.5t-13.5 -2h-694v6z" />
<glyph unicode="`" horiz-adv-x="317" d="M0 1438q15 59 35 59q2 0 140 -116.5t142 -123.5q-20 -40 -26 -40q-1 0 -144.5 109t-146.5 112z" />
<glyph unicode="a" horiz-adv-x="774" d="M86 279q0 84 19.5 146t49.5 96.5t76 55.5t89 27t98 6q112 0 182 -20v194q0 114 -49 154.5t-143 40.5q-102 0 -186.5 -16t-125.5 -37q-10 18 -10 37q0 25 12 32q37 19 130 34t196 15q121 0 181.5 -57t60.5 -190v-131q0 -310 -11 -611q-121 -75 -272 -75h-19q-38 0 -68 3 q-38 4 -79.5 21.5t-68.5 48.5t-44.5 88.5t-17.5 137.5zM156 281q0 -48 7.5 -85.5t18 -62.5t30.5 -42.5t37.5 -26.5t45.5 -14t48.5 -6t53.5 -1q60 0 114.5 17t76.5 38q12 153 12 434q-73 21 -164 21q-41 0 -70.5 -3t-65 -11.5t-59 -27t-44.5 -47.5t-31 -75.5t-10 -107.5z" />
<glyph unicode="b" horiz-adv-x="851" d="M135 41v1425q0 19 8 27.5t19.5 10t40.5 1.5v-553q60 46 126.5 69t159.5 23q66 -1 115.5 -21t87.5 -63.5t58 -119t20 -181.5q0 -174 -26.5 -302.5t-65.5 -199t-96 -112.5t-104.5 -53.5t-104.5 -11.5q-159 0 -238 61zM203 88q53 -45 174 -45q323 0 323 590q0 194 -55.5 270 t-181.5 76q-157 0 -260 -100v-791z" />
<glyph unicode="c" horiz-adv-x="708" d="M96 489q0 102 12 185t32 140t50 99.5t61.5 67t70.5 39.5t73 19.5t74 4.5q66 0 119 -22.5t53 -50.5q0 -25 -14 -45q-67 55 -170 55q-31 0 -56.5 -4t-56.5 -17t-55.5 -34.5t-48.5 -59.5t-40 -89.5t-26 -127t-10 -168.5q0 -136 18 -225.5t54.5 -134.5t79 -61.5t104.5 -16.5 q69 0 124 22t87 54q12 -21 12 -45q0 -31 -70 -62.5t-167 -31.5q-57 0 -99 10t-84 41t-68 85.5t-42.5 148.5t-16.5 224z" />
<glyph unicode="d" horiz-adv-x="851" d="M96 492q0 139 29 247t80 173.5t116.5 98.5t141.5 33q118 0 184 -47v471q0 26 13.5 31.5t56.5 5.5v-1464q-109 -61 -287 -61q-43 0 -76 4t-69.5 17t-63 35.5t-51.5 61t-40 91.5t-24.5 129.5t-9.5 173.5zM168 494q0 -100 8.5 -174.5t27 -123.5t40.5 -79.5t56 -46.5t66 -21 t78 -6q128 0 205 49l-2 836q-38 30 -74 41.5t-98 11.5q-135 0 -221 -124.5t-86 -362.5z" />
<glyph unicode="e" horiz-adv-x="790" d="M92 453q0 112 12 202t32 151t50 105.5t60 69.5t69.5 40t71.5 19t72 4q256 0 256 -321q0 -133 -15 -227q-188 -37 -477 -37h-63v-10q0 -106 14 -181t37 -118t61 -67t75 -31t91 -7q160 0 258 76q11 -28 11 -51q0 -30 -84.5 -60t-188.5 -30q-54 0 -94 6t-81.5 23.5t-70 50.5 t-51.5 84t-34 129t-11 180zM160 520q341 0 481 31q8 76 8 149q-3 141 -44.5 211t-145.5 70q-31 0 -54.5 -2.5t-54.5 -13.5t-54.5 -29.5t-48.5 -53t-42 -82t-29.5 -119t-15.5 -161.5z" />
<glyph unicode="f" horiz-adv-x="497" d="M33 961q0 46 3 54.5t21 8.5h146v135q0 91 21 158t52 104t77 59.5t85.5 29t87.5 6.5q57 0 97 -8.5t55.5 -19t15.5 -20.5q0 -11 -10 -41q-70 23 -156 23q-42 0 -72.5 -4t-68 -21t-61 -47.5t-40 -87t-16.5 -135.5v-131h240q0 -43 -4 -53t-19 -10h-217v-938q0 -23 -22 -23 h-45v961h-170z" />
<glyph unicode="g" horiz-adv-x="841" d="M84 -190q0 70 53.5 143.5t126.5 122.5q-145 41 -145 106q0 38 40 88t93 88q-133 79 -133 320q0 175 94.5 270.5t237.5 95.5q35 0 90 -10h258q6 -12 6 -28q0 -33 -37 -33q-55 0 -145 8q69 -30 108 -99t39 -171q0 -81 -19 -150.5t-57.5 -125.5t-104 -88t-151.5 -32 q-75 0 -137 19q-44 -31 -78.5 -72t-34.5 -67q0 -64 344 -99q61 -8 103.5 -19.5t84.5 -34.5t63.5 -64t21.5 -99q0 -53 -25 -103t-72.5 -91t-125 -66t-174.5 -25t-164 17.5t-100 49.5t-46.5 67.5t-13.5 81.5zM154 -184q0 -36 10 -61.5t36 -48.5t79 -34.5t131 -11.5 q154 0 240.5 63.5t86.5 151.5q0 37 -13 64.5t-32.5 44t-51.5 28t-61 16.5t-71 9q-102 9 -180 24q-68 -43 -121 -113.5t-53 -131.5zM186 676q0 -51 5 -89.5t21 -80t43 -68t75 -44t114 -17.5q85 0 145 51t86.5 126t26.5 163q0 134 -65.5 201t-185.5 67q-114 0 -189.5 -79.5 t-75.5 -229.5z" />
<glyph unicode="h" horiz-adv-x="839" d="M129 0v1468q0 26 11.5 31.5t54.5 5.5v-555q124 94 286 94q76 0 126.5 -19t77.5 -57t37.5 -86t10.5 -116v-743q0 -17 -8.5 -20t-58.5 -3v758q0 110 -43 165.5t-158 55.5q-67 0 -140 -26t-130 -81v-849q0 -17 -8.5 -20t-57.5 -3z" />
<glyph unicode="i" horiz-adv-x="342" d="M125 1389q3 67 47 67q45 0 45 -70q-3 -65 -49 -65q-43 3 -43 60v8zM135 0v987q0 26 14.5 31.5t57.5 5.5v-1001q0 -17 -9.5 -20t-62.5 -3z" />
<glyph unicode="j" horiz-adv-x="368" d="M-250 -313q0 23 14 43q87 -64 216 -64q45 0 76 12.5t49.5 33.5t28.5 58.5t13 76.5t3 98v1042q0 26 12 31.5t55 5.5v-1100q0 -77 -9.5 -131t-34.5 -99.5t-74 -68t-122 -22.5q-100 0 -163.5 26.5t-63.5 57.5zM139 1389q3 67 47 67q45 0 45 -70q-3 -65 -49 -65q-43 3 -43 60 v8z" />
<glyph unicode="k" horiz-adv-x="819" d="M135 0v1468q0 26 12.5 31.5t55.5 5.5v-612q64 71 154.5 111t162.5 40q95 0 138.5 -45.5t43.5 -136.5q0 -55 -21.5 -106t-50 -85.5t-67.5 -65t-63.5 -45t-48.5 -25.5q8 1 16 1q27 0 59 -10q42 -13 85.5 -43.5t79 -90t50.5 -138.5q9 -50 9 -109q0 -53 -9 -118 q-3 -21 -11.5 -24t-61.5 -3q10 85 10 137q0 100 -29 185q-18 48 -46 81.5t-61 51t-64 25t-64 7.5q-30 0 -66 -8l-145 -53v-403q0 -18 -7.5 -20.5t-60.5 -2.5zM203 489q193 60 311.5 151t118.5 214q0 125 -129 125q-164 0 -301 -160v-330z" />
<glyph unicode="l" horiz-adv-x="339" d="M135 0v1468q0 26 12.5 31.5t55.5 5.5v-1482q0 -17 -9 -20t-59 -3z" />
<glyph unicode="m" horiz-adv-x="1259" d="M135 0v977q162 67 299 67q157 0 205 -79q122 79 270 79q73 0 119 -18.5t69.5 -60.5t31.5 -93t8 -133v-716q0 -17 -8.5 -20t-59.5 -3v752q0 126 -32.5 177.5t-131.5 51.5q-126 0 -233 -72v-886q0 -14 -4 -18.5t-23 -4.5h-39v805q-3 95 -35.5 135.5t-134.5 40.5 q-119 0 -233 -53v-905q0 -17 -9.5 -20t-58.5 -3z" />
<glyph unicode="n" horiz-adv-x="851" d="M131 0v971q169 73 336 73q83 0 138 -18t85 -56.5t41.5 -88.5t11.5 -125v-733q0 -17 -9 -20t-60 -3v741q0 131 -42 185.5t-165 54.5q-62 0 -138.5 -15t-131.5 -42v-901q0 -17 -9 -20t-57 -3z" />
<glyph unicode="o" horiz-adv-x="811" d="M76 508q0 536 342 536q82 0 138.5 -24.5t98 -84.5t61 -164.5t19.5 -260.5q0 -265 -87.5 -397.5t-252.5 -132.5q-64 0 -108 10.5t-87 42.5t-68 89t-40.5 153.5t-15.5 232.5zM145 496q0 -109 11 -188t31 -130t52.5 -81t69.5 -42t88 -12q127 0 198 117.5t71 355.5 q0 138 -16.5 231t-50.5 143.5t-77.5 70.5t-105.5 20q-64 0 -112 -25t-84.5 -80t-55.5 -150.5t-19 -229.5z" />
<glyph unicode="p" horiz-adv-x="845" d="M135 -377v1338q131 83 293 83q84 0 144.5 -22t105.5 -72t67.5 -136t22.5 -210q0 -115 -13.5 -209t-35.5 -157.5t-53.5 -111.5t-63.5 -75t-69 -44t-66.5 -22t-60.5 -5q-68 0 -124 26.5t-79 59.5v-463q-18 -6 -35 -6q-33 0 -33 26zM203 160q33 -57 84.5 -87t107.5 -30 q25 1 48 5t54.5 18t58 36.5t54 63.5t46 95.5t30.5 136.5t12 182q0 155 -32.5 244.5t-90 123t-151.5 33.5q-122 0 -221 -61v-760z" />
<glyph unicode="q" horiz-adv-x="868" d="M94 457q0 291 109 439t301 148q139 0 227 -65v-1356q0 -20 -7 -24.5t-36 -4.5h-24v508q-88 -122 -261 -122q-309 0 -309 477zM166 451q0 -106 18 -183.5t43.5 -119.5t63.5 -66.5t68 -31t67 -7.5h7q65 0 129 37q66 38 102 117v741q-53 43 -170 43q-160 0 -244 -131.5 t-84 -398.5z" />
<glyph unicode="r" horiz-adv-x="583" d="M131 0v954q125 90 268 90q70 0 112 -17t42 -42q0 -29 -14 -43q-64 37 -131 37q-120 0 -209 -68v-888q0 -17 -10.5 -20t-57.5 -3z" />
<glyph unicode="s" horiz-adv-x="792" d="M96 55q0 30 19 47q48 -31 102.5 -44t138.5 -13q125 0 196 45.5t71 140.5q0 71 -34 125.5t-108 106.5l-229 141q-90 55 -120 102.5t-30 112.5q0 105 93 165t239 60q51 0 95.5 -7t74.5 -18t52 -24t32 -24t10 -19q0 -18 -20 -45q-112 74 -242 74q-113 0 -187.5 -42.5 t-74.5 -117.5q0 -45 25 -81.5t92 -80.5l250 -157q77 -57 114 -117.5t37 -136.5q0 -132 -86.5 -200t-245.5 -68q-119 0 -191.5 23t-72.5 52z" />
<glyph unicode="t" horiz-adv-x="620" d="M68 961q0 42 3.5 52.5t16.5 10.5h145v334q0 25 10.5 30t57.5 5v-369h277q0 -43 -2.5 -53t-14.5 -10h-260v-658q0 -45 1 -72.5t4 -61t10.5 -53.5t19.5 -38.5t31 -26.5t45 -8q45 0 73 8.5t68 28.5q8 -16 8 -39q0 -28 -47 -44.5t-113 -16.5q-34 0 -60.5 9t-44.5 22.5 t-30 39.5t-18.5 48.5t-10 62.5t-4 69t-0.5 78v652h-165z" />
<glyph unicode="u" horiz-adv-x="894" d="M141 369v632q0 17 8 20t60 3v-668q0 -183 50 -248t196 -65q50 0 115 13t116 42v903q0 17 11 20t57 3v-977q-137 -67 -314 -67q-175 0 -237 85t-62 304z" />
<glyph unicode="v" horiz-adv-x="749" d="M66 999q-2 6 -2 11q0 8 7 10q11 4 58 4l109 -379q35 -120 70.5 -260.5t53.5 -221.5l19 -81h2q61 294 137 565l96 354q4 17 14 20t58 3l-285 -1040q-4 -2 -41 -2q-7 0 -34 100z" />
<glyph unicode="w" horiz-adv-x="1153" d="M61 1001q-1 4 -1 7q0 10 8 13q10 3 61 3l98 -408q29 -122 58.5 -251t44.5 -197l14 -68h4q6 31 113 502l78 361q3 22 24 22h43l96 -391l121 -494h2q23 149 107 516l86 385q3 17 12.5 20t61.5 3q-244 -1040 -246 -1040q-29 -2 -39 -2q-2 0 -8.5 13.5t-16 41.5t-16.5 61 l-37 142q-72 263 -154 612q-58 -285 -141 -614l-63 -254q-37 -2 -45 -2q-3 0 -8.5 12.5t-12 36t-12.5 51.5q-28 117 -86 347t-102 401z" />
<glyph unicode="x" horiz-adv-x="940" d="M57 0l371 543l-317 469q-5 8 5 10q12 2 66 2l125 -182l166 -252q5 7 68 102t104 154l115 166q8 9 17 10.5t67 1.5l-328 -479l361 -525q7 -8 7 -12t-5 -5q-9 -3 -74 -3l-131 190q-36 53 -79 116.5t-82 121.5t-44 66l-207 -308l-117 -172q-7 -10 -21 -12t-67 -2z" />
<glyph unicode="y" horiz-adv-x="780" d="M12 -350q0 28 19 43q52 -25 116 -25q149 0 220 299l-281 1032q-6 19 2 22t59 3l191 -696q16 -63 32 -134t24 -111l7 -40q23 144 60 287l174 669q4 19 13 22t63 3l-287 -1094q-48 -176 -115 -250.5t-162 -74.5q-61 0 -98 12t-37 33z" />
<glyph unicode="z" horiz-adv-x="794" d="M76 35q0 22 8 33l551 893h-279q-185 0 -268 -9q-2 18 -2 37q0 15 6.5 25t16.5 10h600q10 -9 10 -25q0 -23 -10 -41l-553 -892h286q200 0 273 12v-37q0 -23 -5 -32t-20 -9h-604q-10 12 -10 35z" />
<glyph unicode="{" horiz-adv-x="600" d="M125 610q0 32 27 45q26 15 36 22t28 24t25 34.5t13 48.5t6 72q0 84 -14.5 223t-14.5 207q0 67 23.5 114.5t68 74t99.5 38t127 11.5q12 -14 12 -41q0 -12 -6.5 -19.5t-15.5 -7.5q-58 -2 -97.5 -10.5t-73.5 -28t-50.5 -56.5t-16.5 -93q0 -44 13.5 -181.5t13.5 -234.5 q0 -103 -34.5 -156.5t-96.5 -77.5q66 -22 98.5 -64.5t32.5 -127.5q0 -99 -13.5 -243.5t-13.5 -200.5q0 -31 2.5 -57t9 -46.5t12 -36.5t18.5 -28.5t22.5 -21t29 -15l31.5 -10.5t38 -7t41 -4.5t46 -3.5q4 -20 4 -26q0 -35 -29 -35q-156 0 -225.5 60t-69.5 212q0 70 14.5 214 t14.5 233q0 80 -33.5 116.5t-95.5 48.5q-6 12 -6 35z" />
<glyph unicode="|" horiz-adv-x="776" d="M354 -410v2055q0 18 10 21t56 3v-2056q0 -16 -11.5 -19.5t-54.5 -3.5z" />
<glyph unicode="}" horiz-adv-x="600" d="M39 -268q0 12 6.5 19t15.5 7q58 2 97.5 10.5t73.5 28t50.5 57t16.5 93.5q0 44 -13.5 181t-13.5 234q0 102 34.5 156t96.5 80q-65 20 -98 63t-33 127q0 99 13.5 244t13.5 201q0 45 -6 78.5t-15 56.5t-27 39.5t-35 25.5t-47 15t-54 8.5t-64 5.5h-2q-4 20 -4 27q0 35 29 35 q156 0 225.5 -60.5t69.5 -212.5q0 -70 -15.5 -213t-15.5 -233q0 -80 34.5 -117t96.5 -49q6 -18 6 -35q0 -32 -26 -45q-33 -19 -45.5 -28t-32 -32t-26.5 -56.5t-7 -84.5q0 -84 15.5 -223t15.5 -207q0 -128 -84.5 -182.5t-235.5 -54.5q-10 15 -10 41z" />
<glyph unicode="~" horiz-adv-x="819" d="M27 524q29 47 88.5 87t144.5 40q38 0 70.5 -11.5t57 -27.5l49 -32t57 -27.5t69.5 -11.5q55 0 100 25t72 67q15 18 33.5 9.5t26.5 -34.5q-19 -26 -36 -45t-46 -41.5t-68.5 -34.5t-87.5 -12q-52 0 -96.5 17.5t-70.5 38t-62.5 38t-73.5 17.5q-100 0 -178 -90 q-12 -11 -27.5 -2t-21.5 30z" />
<glyph unicode="&#xa1;" horiz-adv-x="376" d="M123 971q0 31 19.5 51t50.5 20q30 0 46.5 -19t16.5 -52q0 -30 -17.5 -51t-45.5 -21q-31 0 -50.5 21t-19.5 51zM150 -406l4 1065q2 31 67 31l4 -1075q0 -13 -17.5 -17t-57.5 -4z" />
<glyph unicode="&#xa2;" d="M201 455q0 132 18 233.5t46.5 163.5t70.5 103t83 58.5t91 24.5v252q0 23 13 30t48 7v-285h2q61 0 116.5 -22t55.5 -41q0 -33 -14 -53q-24 18 -39.5 27t-45 16.5t-68.5 7.5q-49 0 -87.5 -9t-81.5 -41.5t-71 -87.5t-47 -154.5t-19 -235.5q0 -80 6.5 -141.5t17.5 -104 t30.5 -72.5t39 -47t50.5 -26.5t58.5 -12t68.5 -2.5q91 0 192 76q13 -19 13 -47q0 -24 -67 -58t-144 -34h-5v-242q0 -23 -11 -30t-48 -7v281q-54 3 -91.5 13.5t-74.5 40t-58.5 80t-34.5 135.5t-13 204z" />
<glyph unicode="&#xa3;" horiz-adv-x="813" d="M31 571v7q0 40 3 50.5t19 10.5h144v35q0 132 16.5 229.5t44.5 157.5t70.5 96t87.5 49t102 13q83 0 143 -26.5t60 -57.5q0 -28 -14 -50q-43 35 -85 50.5t-104 15.5q-47 0 -82 -10.5t-69 -41t-55.5 -81.5t-34.5 -137t-13 -203v-39h332q0 -25 -0.5 -34.5t-2.5 -19.5 t-6.5 -12t-13.5 -2h-309q0 -222 17 -501l419 -7q9 -18 9 -32q0 -8 -4 -14t-12.5 -9.5t-16.5 -5.5t-21 -2.5t-22 -0.5t-23 0.5t-20 0.5h-375q-18 340 -18 571h-166z" />
<glyph unicode="&#xa5;" d="M90 1421q-3 9 7 11q11 2 69 2l113 -301q46 -117 105 -284t65 -192q5 21 64 187t105 289l107 286q5 11 15.5 13t62.5 2l-256 -678h217q0 -36 -6.5 -48t-28.5 -12h-205l-41 -108v-154h283q0 -35 -6.5 -47t-28.5 -12h-248v-352q0 -17 -8 -20t-59 -3v375h-289q0 35 6 47 t27 12h256v150l-45 112h-244q0 35 6 47.5t27 12.5h188z" />
<glyph unicode="&#xa6;" horiz-adv-x="458" d="M197 -399v825q0 29 32 29q17 0 35 -6v-830q0 -13 -7 -17.5t-28 -4.5q-20 0 -32 4zM197 686v807q0 27 32 27q23 0 35 -4v-811q0 -13 -7.5 -18t-27.5 -5t-32 4z" />
<glyph unicode="&#xa7;" horiz-adv-x="784" d="M115 815q0 61 34.5 118t104.5 93q-13 10 -23 23q-55 55 -75.5 92t-20.5 94q0 92 78.5 149.5t214.5 57.5q88 0 153.5 -28.5t77.5 -57.5q3 -9 3 -15q0 -23 -21 -41q-88 72 -219 72q-99 0 -157 -39t-58 -102q0 -43 17.5 -73t60.5 -75q26 -26 136 -116t150 -133 q56 -57 79.5 -104t23.5 -112q0 -60 -36.5 -116.5t-105.5 -93.5l25 -23q55 -56 75.5 -93t20.5 -93q0 -92 -79 -149.5t-214 -57.5q-89 0 -154.5 28.5t-76.5 57.5q-2 6 -2 14q0 27 20 41q88 -72 220 -72q99 0 157 39.5t58 102.5q0 42 -17.5 72t-60.5 75q-26 26 -136.5 116.5 t-150.5 133.5q-55 57 -78.5 103.5t-23.5 111.5zM180 815q0 -51 19 -88t61 -86q21 -24 54.5 -53t93.5 -77t77 -62q52 24 87.5 75t35.5 94q0 51 -19 88.5t-61 86.5q-22 23 -58 53t-91 74t-78 63q-54 -20 -87.5 -71.5t-33.5 -96.5z" />
<glyph unicode="&#xa8;" horiz-adv-x="413" d="M0 1348q0 28 16.5 47.5t44.5 19.5q30 0 49 -19.5t19 -47.5q0 -31 -19.5 -50.5t-48.5 -19.5q-61 0 -61 70zM287 1348q0 28 16.5 47.5t44.5 19.5q30 0 48 -19t18 -48q0 -31 -18.5 -50.5t-47.5 -19.5q-61 0 -61 70z" />
<glyph unicode="&#xa9;" horiz-adv-x="937" d="M84 1104q0 233 103 344t294 111q95 0 162 -22.5t116.5 -74t73 -140t23.5 -216.5q0 -218 -100.5 -333.5t-282.5 -115.5q-64 0 -112.5 7t-94.5 25t-78 50.5t-56 81t-36 119.5t-12 164zM143 1094q0 -108 20.5 -182t62.5 -116.5t98 -60.5t135 -18q157 0 247.5 101t90.5 292 q0 110 -21 186.5t-63 120.5t-97.5 63t-130.5 19q-342 0 -342 -405zM303 1077q0 81 12.5 140.5t30.5 92t45.5 51t51 23.5t53.5 5q31 0 63.5 -12.5t32.5 -20.5q0 -5 -7 -23.5t-10 -21.5q-3 2 -8.5 5.5t-8 5t-8 4t-9.5 4t-9.5 3t-12 2t-13.5 0.5q-30 0 -52.5 -9t-45.5 -33.5 t-35.5 -79t-12.5 -136.5q0 -52 6 -88.5t15 -57.5t26 -32.5t33.5 -14.5t42.5 -3q41 0 95 30q16 -32 16 -39q0 -12 -38 -29.5t-79 -17.5q-36 0 -59 4t-47 18.5t-37.5 41t-22 73.5t-8.5 115z" />
<glyph unicode="&#xaa;" horiz-adv-x="706" d="M117 836q0 76 19.5 126t58 74t79 32.5t97.5 8.5q84 0 155 -22v194q0 45 -14.5 75t-41 44t-51.5 18.5t-59 4.5q-117 0 -217 -56q-12 8 -15 29t7 29q82 61 246 61q42 0 77 -8.5t66 -28.5t48.5 -58.5t17.5 -92.5v-617q-33 -19 -100 -38t-142 -19q-40 0 -70 4.5t-62 19 t-52.5 40.5t-33.5 71.5t-13 108.5zM176 827q0 -55 14.5 -91.5t42.5 -54.5t59 -25t73 -7q43 0 90 12t71 25v309q-90 23 -137 23q-43 0 -69.5 -2.5t-57 -12.5t-47 -30t-28 -56.5t-11.5 -89.5z" />
<glyph unicode="&#xab;" horiz-adv-x="856" d="M76 524q0 17 77 142t155 242l77 116q12 0 22.5 -8.5t15.5 -17.5l5 -9q0 -16 -72 -132t-144 -225l-71 -108q295 -452 295 -479q-17 -45 -37 -45q-323 481 -323 524zM391 512q0 17 77.5 135t154.5 227l77 109q12 0 22 -8.5t14 -17.5l5 -9q0 -16 -70.5 -125t-140.5 -210 l-71 -101q293 -399 293 -424q-17 -45 -37 -45q-324 428 -324 469z" />
<glyph unicode="&#xac;" horiz-adv-x="819" d="M68 555q0 14 8 24.5t20 10.5h631v-363q-15 -6 -33 -6q-14 0 -24.5 9t-10.5 20v272h-585q-6 14 -6 33z" />
<glyph unicode="&#xad;" horiz-adv-x="614" d="M98 543q0 25 0.5 34.5t2.5 19t6.5 11.5t13.5 2h395v-7q0 -39 -3 -49.5t-19 -10.5h-396z" />
<glyph unicode="&#xae;" horiz-adv-x="937" d="M84 1104q0 233 103 344t294 111q95 0 162 -22.5t116.5 -74t73 -140t23.5 -216.5q0 -218 -100.5 -333.5t-282.5 -115.5q-64 0 -112.5 7t-94.5 25t-78 50.5t-56 81t-36 119.5t-12 164zM143 1094q0 -108 20.5 -182t62.5 -116.5t98 -60.5t135 -18q157 0 247.5 101t90.5 292 q0 110 -21 186.5t-63 120.5t-97.5 63t-130.5 19q-342 0 -342 -405zM344 836v550q0 9 10 9h111q91 0 131.5 -41t40.5 -107q0 -119 -96 -155q18 -20 36.5 -46.5t41 -80.5t30.5 -113q0 -16 -14 -16h-39q-30 158 -115 243h-84v-227q0 -12 -11 -14t-42 -2zM397 1126h58 q66 0 98.5 31.5t32.5 87.5q0 101 -129 101h-60v-220z" />
<glyph unicode="&#xaf;" horiz-adv-x="503" d="M0 1331q3 35 29 35h471q4 -14 4 -35q-3 -33 -29 -33h-471q-4 12 -4 33z" />
<glyph unicode="&#xb0;" horiz-adv-x="782" d="M221 1341q0 87 48.5 132t133.5 45q84 0 124 -40.5t40 -136.5q0 -85 -47 -129.5t-131 -44.5t-126 36.5t-42 137.5zM281 1335q0 -59 26.5 -84.5t81.5 -25.5q119 0 119 118q0 64 -26 90.5t-79 26.5q-61 0 -91.5 -28.5t-30.5 -96.5z" />
<glyph unicode="&#xb1;" d="M98 20q0 25 0.5 34.5t2.5 19.5t6.5 12t13.5 2h694v-7q0 -40 -3 -50.5t-19 -10.5h-695zM98 557q0 25 0.5 34.5t2.5 19.5t6.5 12t13.5 2h305v303q0 16 10.5 19t55.5 3v-325h323v-7q0 -40 -3 -50.5t-19 -10.5h-301v-301q0 -16 -11.5 -19.5t-54.5 -3.5v324h-328z" />
<glyph unicode="&#xb2;" horiz-adv-x="851" d="M125 623q0 34 16 47q49 52 123 116.5t129 112t108.5 102t82 111t28.5 113.5q0 35 -7 61t-25.5 50t-56.5 37t-93 13q-60 0 -112.5 -18t-81 -37t-62.5 -49q-20 20 -20 45q0 20 39 49t109.5 53.5t141.5 24.5q72 0 121.5 -17.5t74.5 -50t35.5 -69.5t10.5 -86 q0 -62 -30 -123.5t-84 -119.5t-109.5 -107t-127.5 -112.5t-116 -111.5h502q6 -18 6 -30q0 -35 -27 -35h-569q-6 12 -6 31z" />
<glyph unicode="&#xb3;" horiz-adv-x="899" d="M152 659q0 24 24 41q41 -34 92.5 -48.5t137.5 -14.5q124 0 198 55t74 148q0 66 -44.5 110.5t-113.5 55.5q-66 10 -186 10q-8 8 -8 31q0 11 7 20.5t21 9.5q74 0 156 -8q70 43 99.5 87.5t29.5 100.5q0 51 -43 91.5t-145 40.5q-160 0 -265 -91q-17 16 -16.5 36.5t12.5 29.5 q37 35 109 62.5t168 27.5q133 0 191.5 -54t58.5 -132q0 -131 -123 -215q74 -24 116.5 -77.5t42.5 -127.5q0 -133 -93 -205t-257 -72q-85 0 -147 19t-86 45q-10 10 -10 24z" />
<glyph unicode="&#xb4;" horiz-adv-x="317" d="M0 1241q58 56 128 116t111.5 93t43.5 33q5 0 9.5 -4t8 -10t6.5 -14t5 -14l4 -12l1 -6q-6 -6 -44.5 -37.5t-110 -86.5t-135.5 -99q-3 0 -9.5 10t-11.5 20z" />
<glyph unicode="&#xb6;" horiz-adv-x="1128" d="M104 868q0 277 106.5 430.5t301.5 153.5q132 0 229 -51v-1381q0 -17 -8 -21.5t-28 -4.5q-19 0 -31 6v428q-34 -19 -93.5 -30t-107.5 -11q-58 0 -108.5 13t-99.5 47t-84 87t-56 138.5t-21 195.5zM172 870q0 -98 18 -173t47.5 -121t71 -74.5t83.5 -39.5t91 -11 q41 -2 98 9.5t93 33.5v862q-52 33 -170 33q-159 0 -245.5 -135t-86.5 -384zM918 2v1382q0 27 34 27q19 0 33 -4v-1387q0 -13 -7 -17.5t-28 -4.5q-20 0 -32 4z" />
<glyph unicode="&#xb7;" horiz-adv-x="405" d="M129 553q0 29 18 49.5t48 20.5t48.5 -20t18.5 -50q0 -31 -19 -51.5t-48 -20.5q-32 0 -49 19.5t-17 52.5z" />
<glyph unicode="&#xb8;" horiz-adv-x="235" d="M0 -358q4 41 16 53q10 5 19 2.5t30 -8.5t37 -6q76 0 76 75q0 43 -20.5 58.5t-53.5 15.5q-16 0 -34 -3t-28 -6l-11 -3l39 186h57l-27 -131q10 4 37 4q40 0 69.5 -27t29.5 -81q0 -77 -40 -110.5t-94 -33.5q-24 0 -49.5 3.5t-38.5 7.5z" />
<glyph unicode="&#xb9;" horiz-adv-x="878" d="M152 621q0 36 26 36h266v721l-276 -59q-10 13 -10 33q0 25 28 34q267 68 297 68q19 0 29 -4v-793h211q4 -12 4 -32q0 -33 -25 -33h-544q-6 12 -6 29z" />
<glyph unicode="&#xba;" horiz-adv-x="731" d="M98 1020q0 222 75 328t204 106q89 0 143 -36.5t83.5 -133t29.5 -264.5q0 -212 -71.5 -319t-205.5 -107q-50 0 -87 10t-70.5 38t-55 75t-33.5 123t-12 180zM162 1010q0 -138 23.5 -217.5t64 -108.5t106.5 -29q102 0 158.5 94t56.5 277q0 140 -23.5 222.5t-63.5 112.5 t-103 30q-107 0 -163 -88.5t-56 -292.5z" />
<glyph unicode="&#xbb;" horiz-adv-x="849" d="M104 86q0 11 73.5 117.5t147.5 207.5l74 101q-284 401 -284 436q0 11 10.5 20t20.5 12l10 3q309 -432 309 -471q0 -19 -80.5 -137t-160.5 -226l-81 -108q-4 1 -10.5 3.5t-17.5 14t-11 27.5zM414 45q0 11 73 131t147 234l73 114q-285 430 -285 465q0 11 11 20t21 12l11 3 q309 -461 309 -500q0 -19 -80 -150t-160 -252l-81 -122q-2 0 -4.5 1t-9 4.5t-12 8t-9.5 13t-4 18.5z" />
<glyph unicode="&#xbc;" horiz-adv-x="1808" d="M152 621q0 36 26 36h266v721l-276 -59q-10 13 -10 33q0 25 28 34q267 68 297 68q19 0 29 -4v-793h211q4 -12 4 -32q0 -33 -25 -33h-544q-6 12 -6 29zM465 16l924 1426q7 14 22 14q24 0 41 -31l-926 -1431q-3 -10 -18 -10q-14 0 -27 9.5t-16 22.5zM1004 186q0 10 16 60 q43 132 161.5 313.5t229.5 284.5q18 18 47 18q17 0 29 -4v-633h162q6 -12 6 -35q0 -11 -5.5 -20.5t-13.5 -9.5h-149v-140q0 -28 -41 -28q-17 0 -25 2v166h-409q-8 16 -8 26zM1081 223h340l2 539q-92 -86 -196.5 -243t-145.5 -296z" />
<glyph unicode="&#xbd;" horiz-adv-x="1886" d="M152 621q0 36 26 36h266v721l-276 -59q-10 13 -10 33q0 25 28 34q267 68 297 68q19 0 29 -4v-793h211q4 -12 4 -32q0 -33 -25 -33h-544q-6 12 -6 29zM465 16l924 1426q7 14 22 14q24 0 41 -31l-926 -1431q-3 -10 -18 -10q-14 0 -27 9.5t-16 22.5zM1133 31q0 34 16 47 q49 52 123 116.5t129 112t108.5 102t82 111t28.5 113.5q0 75 -38.5 118.5t-143.5 43.5q-60 0 -113 -18t-81 -37.5t-62 -49.5q-21 21 -21 45q0 20 39.5 49t110 53.5t141.5 24.5q72 0 121.5 -17.5t74.5 -50t35.5 -69.5t10.5 -86q0 -62 -30 -123.5t-84 -119t-109.5 -107 t-127.5 -112.5t-116 -111h502q6 -18 6 -31q0 -35 -27 -35h-569q-6 12 -6 31z" />
<glyph unicode="&#xbe;" horiz-adv-x="1802" d="M152 659q0 24 24 41q41 -34 92.5 -48.5t137.5 -14.5q124 0 198 55t74 148q0 66 -44.5 110.5t-113.5 55.5q-66 10 -186 10q-8 8 -8 31q0 11 7 20.5t21 9.5q74 0 156 -8q70 43 99.5 87.5t29.5 100.5q0 51 -43 91.5t-145 40.5q-160 0 -265 -91q-17 16 -16.5 36.5t12.5 29.5 q37 35 109 62.5t168 27.5q133 0 191.5 -54t58.5 -132q0 -131 -123 -215q74 -24 116.5 -77.5t42.5 -127.5q0 -133 -93 -205t-257 -72q-85 0 -147 19t-86 45q-10 10 -10 24zM494 16l923 1426q7 14 23 14q24 0 41 -31l-926 -1431q-3 -10 -18 -10q-14 0 -27 9.5t-16 22.5z M997 186q0 7 17 60q43 132 161.5 313.5t229.5 284.5q18 18 47 18q17 0 29 -4v-633h161q7 -14 7 -35q0 -11 -5.5 -20.5t-13.5 -9.5h-149v-140q0 -28 -41 -28q-17 0 -25 2v166h-409q-9 18 -9 26zM1075 223h340l2 539q-92 -86 -196.5 -243t-145.5 -296z" />
<glyph unicode="&#xbf;" horiz-adv-x="610" d="M29 -104q0 80 30.5 159t67 128.5t85.5 111t67 92.5q49 83 49 176q0 25 -3.5 50.5t-6.5 38t-1 14.5q10 15 62 6q18 -43 18 -109q0 -105 -59 -203q-21 -37 -68 -97t-81.5 -105.5t-62.5 -115.5t-28 -142q0 -230 226 -230q126 0 217 66q6 -18 6 -51q0 -24 -73 -53t-159 -29 q-55 0 -101 12.5t-90 42.5t-69.5 91t-25.5 147zM276 967q0 31 19 51t49 20q31 0 47.5 -19t16.5 -52q0 -29 -17 -49.5t-47 -20.5q-31 0 -49.5 20t-18.5 50z" />
<glyph unicode="&#xc0;" horiz-adv-x="892" d="M18 0l404 1436q0 8 18 8q21 0 27 -6l405 -1415q3 -14 -2 -19.5t-22 -5.5q-29 0 -43 2l-119 424h-479l-111 -410q-4 -10 -11.5 -13t-25.5 -3q-23 0 -41 2zM213 1847q15 60 35 60q2 0 140 -116.5t142 -123.5q-20 -41 -26 -41q-1 0 -144.5 109t-146.5 112zM223 487h447 l-125 451q-93 338 -101 405q-6 -54 -98 -405z" />
<glyph unicode="&#xc1;" horiz-adv-x="892" d="M18 0l404 1436q0 8 18 8q21 0 27 -6l405 -1415q3 -14 -2 -19.5t-22 -5.5q-29 0 -43 2l-119 424h-479l-111 -410q-4 -10 -11.5 -13t-25.5 -3q-23 0 -41 2zM223 487h447l-125 451q-93 338 -101 405q-6 -54 -98 -405zM371 1651q58 56 128 116t111 92.5t43 32.5q5 0 9.5 -4 t8 -9.5t7 -13.5t5 -13.5t3.5 -11.5l2 -7q-5 -5 -44 -37t-111 -87t-136 -99q-3 0 -9.5 10t-11.5 20z" />
<glyph unicode="&#xc2;" horiz-adv-x="892" d="M18 0l404 1436q0 8 18 8q21 0 27 -6l405 -1415q3 -14 -2 -19.5t-22 -5.5q-29 0 -43 2l-119 424h-479l-111 -410q-4 -10 -11.5 -13t-25.5 -3q-23 0 -41 2zM201 1645l225 217q8 4 20 4q17 0 31 -17q199 -196 199 -202q0 -3 -7.5 -11t-22 -16t-28.5 -8q-170 180 -174 188 q-178 -186 -194 -186q-15 0 -26.5 7t-16 13t-6.5 11zM223 487h447l-125 451q-93 338 -101 405q-6 -54 -98 -405z" />
<glyph unicode="&#xc3;" horiz-adv-x="892" d="M18 0l404 1436q0 8 18 8q21 0 27 -6l405 -1415q3 -14 -2 -19.5t-22 -5.5q-29 0 -43 2l-119 424h-479l-111 -410q-4 -10 -11.5 -13t-25.5 -3q-23 0 -41 2zM156 1688q44 75 87.5 101t102.5 26q33 0 59 -17.5t41 -38t39.5 -38t55.5 -17.5q39 0 68.5 16t42.5 35t23.5 35 t16.5 16q9 0 17.5 -10t12.5 -20l5 -9q-13 -26 -25.5 -44t-35 -40.5t-55.5 -34.5t-74 -12q-34 0 -61 12.5t-44 30t-31.5 34.5t-31.5 29.5t-37 12.5q-37 0 -66.5 -26t-46 -52t-22.5 -26q-9 0 -19 9.5t-16 18.5zM223 487h447l-125 451q-93 338 -101 405q-6 -54 -98 -405z" />
<glyph unicode="&#xc4;" horiz-adv-x="892" d="M18 0l404 1436q0 8 18 8q21 0 27 -6l405 -1415q3 -14 -2 -19.5t-22 -5.5q-29 0 -43 2l-119 424h-479l-111 -410q-4 -10 -11.5 -13t-25.5 -3q-23 0 -41 2zM223 487h447l-125 451q-93 338 -101 405q-6 -54 -98 -405zM238 1757q0 28 16.5 48t44.5 20q30 0 49 -20t19 -48 q0 -31 -19.5 -50t-48.5 -19q-61 0 -61 69zM524 1757q0 28 17 48t45 20q30 0 47.5 -19.5t17.5 -48.5q0 -31 -18 -50t-47 -19q-62 0 -62 69z" />
<glyph unicode="&#xc5;" horiz-adv-x="892" d="M18 0l404 1436q0 8 18 8q21 0 27 -6l405 -1415q3 -14 -2 -19.5t-22 -5.5q-29 0 -43 2l-119 424h-479l-111 -410q-4 -10 -11.5 -13t-25.5 -3q-23 0 -41 2zM223 487h447l-125 451q-93 338 -101 405q-6 -54 -98 -405zM270 1778q0 88 48 132t133 44t124 -40t39 -136 q0 -84 -46.5 -129t-131.5 -45q-80 0 -123 40t-43 134zM330 1774q0 -53 27.5 -82t80.5 -29q117 0 117 117q0 63 -25 88.5t-77 25.5q-62 0 -92.5 -27t-30.5 -93z" />
<glyph unicode="&#xc6;" horiz-adv-x="1363" d="M39 0l731 1419q2 5 9 10t14 5h499q0 -44 -2 -55t-12 -11h-430v-551h403q0 -42 -2.5 -52.5t-15.5 -10.5h-385v-688h446q0 -46 -2.5 -56t-15.5 -10h-496v424h-452l-213 -410q-4 -10 -11.5 -13t-25.5 -3q-21 0 -39 2zM360 487h420v844q-54 -122 -190 -401z" />
<glyph unicode="&#xc7;" horiz-adv-x="745" d="M92 641q0 154 12.5 278t33.5 207.5t52.5 145t63.5 96t74.5 54.5t77.5 26t79 6q82 0 136.5 -33t54.5 -65q0 -22 -17 -43q-12 12 -31 26.5t-60.5 32t-82.5 17.5q-37 0 -66 -5.5t-63.5 -25t-61 -51.5t-52 -89.5t-42 -135.5t-26.5 -192t-10 -257q0 -148 16.5 -257t42 -170.5 t64 -97.5t73 -46.5t78.5 -10.5q72 0 139 36.5t95 78.5q16 -24 16 -47q0 -40 -72.5 -86.5t-166.5 -52.5l-21 -105q10 4 37 4q40 0 69 -27t29 -81q0 -77 -39.5 -110.5t-93.5 -33.5q-24 0 -49.5 3.5t-38.5 7.5l-14 4q4 41 16 53q10 5 19 2.5t30 -8.5t37 -6q76 0 76 75 q0 43 -20.5 58.5t-53.5 15.5q-16 0 -34.5 -3t-29.5 -6l-10 -3l33 162q-32 2 -58.5 8.5t-58.5 25t-57 48t-49 79.5t-40 117t-26 164t-10 217z" />
<glyph unicode="&#xc8;" horiz-adv-x="718" d="M137 0v1411q0 23 23 23h489q0 -44 -2 -55t-12 -11h-430v-551h401q0 -42 -2.5 -52.5t-15.5 -10.5h-383v-688h446q0 -46 -2.5 -56t-15.5 -10h-496zM184 1847q15 60 35 60q2 0 140.5 -116.5t142.5 -123.5q-21 -41 -27 -41q-1 0 -144.5 109t-146.5 112z" />
<glyph unicode="&#xc9;" horiz-adv-x="718" d="M137 0v1411q0 23 23 23h489q0 -44 -2 -55t-12 -11h-430v-551h401q0 -42 -2.5 -52.5t-15.5 -10.5h-383v-688h446q0 -46 -2.5 -56t-15.5 -10h-496zM344 1651q58 56 128 116t111.5 92.5t43.5 32.5q5 0 9.5 -4t8 -9.5t7 -13.5t5 -13.5t3.5 -11.5l2 -7q-5 -5 -44 -37t-111 -87 t-136 -99q-3 0 -9.5 10t-11.5 20z" />
<glyph unicode="&#xca;" horiz-adv-x="718" d="M137 0v1411q0 23 23 23h489q0 -44 -2 -55t-12 -11h-430v-551h401q0 -42 -2.5 -52.5t-15.5 -10.5h-383v-688h446q0 -46 -2.5 -56t-15.5 -10h-496zM174 1645l225 217q8 4 21 4q17 0 31 -17q198 -196 198 -202q0 -3 -7.5 -11t-21.5 -16t-28 -8q-170 180 -174 188 q-179 -186 -195 -186q-15 0 -26.5 7t-16 13t-6.5 11z" />
<glyph unicode="&#xcb;" horiz-adv-x="718" d="M137 0v1411q0 23 23 23h489q0 -44 -2 -55t-12 -11h-430v-551h401q0 -42 -2.5 -52.5t-15.5 -10.5h-383v-688h446q0 -46 -2.5 -56t-15.5 -10h-496zM211 1757q0 28 16.5 48t44.5 20q30 0 49 -20t19 -48q0 -31 -19 -50t-49 -19q-61 0 -61 69zM498 1757q0 28 16.5 48t44.5 20 q30 0 48 -19.5t18 -48.5q0 -31 -18.5 -50t-47.5 -19q-61 0 -61 69z" />
<glyph unicode="&#xcc;" horiz-adv-x="329" d="M-68 1847q15 60 35 60q2 0 140.5 -116.5t142.5 -123.5q-21 -41 -27 -41q-1 0 -144.5 109t-146.5 112zM131 0v1395q0 29 9 34t59 5v-1411q0 -17 -9 -20t-59 -3z" />
<glyph unicode="&#xcd;" horiz-adv-x="329" d="M92 1651q58 56 128 116t111.5 92.5t43.5 32.5q5 0 9.5 -4t8 -9.5t7 -13.5t5 -13.5t3.5 -11.5l2 -7q-5 -5 -44 -37t-111 -87t-136 -99q-3 0 -9.5 10t-11.5 20zM131 0v1395q0 29 9 34t59 5v-1411q0 -17 -9 -20t-59 -3z" />
<glyph unicode="&#xce;" horiz-adv-x="329" d="M-80 1645l225 217q8 4 21 4q17 0 31 -17q198 -196 198 -202q0 -3 -7.5 -11t-21.5 -16t-28 -8q-170 180 -174 188q-179 -186 -195 -186q-15 0 -26.5 7t-16 13t-6.5 11zM131 0v1395q0 29 9 34t59 5v-1411q0 -17 -9 -20t-59 -3z" />
<glyph unicode="&#xcf;" horiz-adv-x="329" d="M-41 1757q0 28 16.5 48t44.5 20q30 0 49 -20t19 -48q0 -31 -19 -50t-49 -19q-61 0 -61 69zM131 0v1395q0 29 9 34t59 5v-1411q0 -17 -9 -20t-59 -3zM246 1757q0 28 16.5 48t44.5 20q30 0 48 -19.5t18 -48.5q0 -31 -18.5 -50t-47.5 -19q-61 0 -61 69z" />
<glyph unicode="&#xd0;" horiz-adv-x="880" d="M37 727v6q0 39 3 49.5t19 10.5h76v608q0 33 49 33h207q199 0 298 -152t99 -485q0 -199 -23 -345.5t-59 -232t-92 -136t-111 -67t-126 -16.5h-242v727h-98zM203 66h174q41 0 74 6.5t69.5 26.5t64.5 53t54 88.5t43 131t27 183.5t10 242q0 299 -80.5 435t-255.5 136h-180 v-575h254q0 -25 -0.5 -34.5t-2.5 -18.5t-6.5 -11t-13.5 -2h-231v-661z" />
<glyph unicode="&#xd1;" horiz-adv-x="954" d="M131 0v1411q0 23 23 23h41l258 -576q4 -14 127.5 -298.5t175.5 -399.5v1251q0 17 8 20t59 3v-1411q0 -23 -22 -23h-41l-262 586q-3 6 -61 138.5t-134.5 307.5t-107.5 246q4 -348 4 -752v-503q0 -17 -8.5 -20t-59.5 -3zM209 1688q44 75 87.5 101t102.5 26q33 0 59 -17.5 t41 -38t39.5 -38t55.5 -17.5q39 0 68.5 16t42.5 35t23.5 35t16.5 16q9 0 17.5 -10t13.5 -20l4 -9q-13 -26 -25.5 -44t-35 -40.5t-55.5 -34.5t-74 -12q-34 0 -61 12.5t-44 30t-31.5 34.5t-31.5 29.5t-37 12.5q-37 0 -66.5 -26t-46 -52t-22.5 -26q-9 0 -19 9.5t-16 18.5z" />
<glyph unicode="&#xd2;" horiz-adv-x="942" d="M92 727q0 387 96 557t299 170q134 0 212 -70.5t114.5 -228t36.5 -428.5q0 -272 -40.5 -435.5t-124 -237.5t-220.5 -74q-134 0 -213.5 68.5t-119.5 232.5t-40 446zM164 700q0 -240 31.5 -383t96.5 -206.5t173 -63.5q113 0 180.5 66t101 216.5t33.5 403.5q0 244 -31 387 t-94.5 204.5t-169.5 61.5q-111 0 -180.5 -65.5t-105 -217.5t-35.5 -403zM262 1847q15 60 35 60q2 0 140.5 -116.5t142.5 -123.5q-21 -41 -27 -41q-1 0 -144.5 109t-146.5 112z" />
<glyph unicode="&#xd3;" horiz-adv-x="942" d="M92 727q0 387 96 557t299 170q134 0 212 -70.5t114.5 -228t36.5 -428.5q0 -272 -40.5 -435.5t-124 -237.5t-220.5 -74q-134 0 -213.5 68.5t-119.5 232.5t-40 446zM164 700q0 -240 31.5 -383t96.5 -206.5t173 -63.5q113 0 180.5 66t101 216.5t33.5 403.5q0 244 -31 387 t-94.5 204.5t-169.5 61.5q-111 0 -180.5 -65.5t-105 -217.5t-35.5 -403zM420 1651q58 56 128 116t111 92.5t43 32.5q5 0 9.5 -4t8 -9.5t7 -13.5t5 -13.5t3.5 -11.5l2 -7q-5 -5 -44 -37t-111 -87t-136 -99q-3 0 -9.5 10t-11.5 20z" />
<glyph unicode="&#xd4;" horiz-adv-x="942" d="M92 727q0 387 96 557t299 170q134 0 212 -70.5t114.5 -228t36.5 -428.5q0 -272 -40.5 -435.5t-124 -237.5t-220.5 -74q-134 0 -213.5 68.5t-119.5 232.5t-40 446zM164 700q0 -240 31.5 -383t96.5 -206.5t173 -63.5q113 0 180.5 66t101 216.5t33.5 403.5q0 244 -31 387 t-94.5 204.5t-169.5 61.5q-111 0 -180.5 -65.5t-105 -217.5t-35.5 -403zM250 1645l225 217q8 4 21 4q16 0 30 -17q199 -196 199 -202q0 -3 -7.5 -11t-21.5 -16t-28 -8q-170 180 -174 188q-179 -186 -195 -186q-15 0 -26.5 7t-16 13t-6.5 11z" />
<glyph unicode="&#xd5;" horiz-adv-x="942" d="M92 727q0 387 96 557t299 170q134 0 212 -70.5t114.5 -228t36.5 -428.5q0 -272 -40.5 -435.5t-124 -237.5t-220.5 -74q-134 0 -213.5 68.5t-119.5 232.5t-40 446zM164 700q0 -240 31.5 -383t96.5 -206.5t173 -63.5q113 0 180.5 66t101 216.5t33.5 403.5q0 244 -31 387 t-94.5 204.5t-169.5 61.5q-111 0 -180.5 -65.5t-105 -217.5t-35.5 -403zM205 1688q44 75 87.5 101t102.5 26q33 0 59 -17.5t41 -38t39.5 -38t55.5 -17.5q39 0 68.5 16t42.5 35t23.5 35t16.5 16q9 0 17.5 -10t13.5 -20l4 -9q-13 -26 -25.5 -44t-35 -40.5t-55.5 -34.5t-74 -12 q-34 0 -61 12.5t-44 30t-31.5 34.5t-31.5 29.5t-37 12.5q-37 0 -66.5 -26t-46 -52t-22.5 -26q-9 0 -19 9.5t-16 18.5z" />
<glyph unicode="&#xd6;" horiz-adv-x="942" d="M92 727q0 387 96 557t299 170q134 0 212 -70.5t114.5 -228t36.5 -428.5q0 -272 -40.5 -435.5t-124 -237.5t-220.5 -74q-134 0 -213.5 68.5t-119.5 232.5t-40 446zM164 700q0 -240 31.5 -383t96.5 -206.5t173 -63.5q113 0 180.5 66t101 216.5t33.5 403.5q0 244 -31 387 t-94.5 204.5t-169.5 61.5q-111 0 -180.5 -65.5t-105 -217.5t-35.5 -403zM287 1757q0 28 16.5 48t44.5 20q30 0 49 -20t19 -48q0 -31 -19 -50t-49 -19q-61 0 -61 69zM573 1757q0 28 17 48t45 20q30 0 47.5 -19.5t17.5 -48.5q0 -31 -18 -50t-47 -19q-62 0 -62 69z" />
<glyph unicode="&#xd7;" d="M207 346l201 229l-201 232q31 31 39.5 36t21.5 -5l185 -211l186 211q6 6 10.5 8t13 -3t15 -11.5l24.5 -24.5l-204 -232l202 -229q-30 -31 -39 -36t-24 5l-184 209l-183 -209q-6 -6 -10.5 -8t-13 3t-15 11.5z" />
<glyph unicode="&#xd8;" horiz-adv-x="954" d="M98 727q0 261 43 421.5t127.5 233t218.5 72.5q150 0 232 -88l43 107q45 -2 49 -25q0 -4 -51 -135q96 -160 96 -586q0 -272 -41 -436t-124.5 -237.5t-219.5 -73.5q-161 0 -240 92q-7 -16 -19 -44.5t-19 -44.5t-7 -18q-43 0 -49 25q0 2 11 27.5t25 60t20 49.5 q-95 166 -95 600zM168 700q0 -360 72 -510l438 1115q-64 81 -189 81q-110 0 -179.5 -65.5t-105.5 -217.5t-36 -403zM274 133q69 -86 193 -86q114 0 182 63.5t102.5 214.5t34.5 408q0 371 -73 514q-45 -115 -231.5 -586.5t-207.5 -527.5z" />
<glyph unicode="&#xd9;" horiz-adv-x="976" d="M131 457v954q0 17 8.5 20t59.5 3v-977q0 -51 2.5 -90.5t10 -84.5t20.5 -78t36 -64.5t54.5 -51t77.5 -31.5t104 -12q77 0 156 16t116 35v1317q0 15 11 18t59 3v-1387q-44 -26 -142.5 -46.5t-199.5 -20.5q-99 0 -169 26.5t-109 67.5t-61 108t-28 127.5t-6 147.5zM272 1847 q15 60 35 60q2 0 140.5 -116.5t142.5 -123.5q-21 -41 -27 -41q-1 0 -144.5 109t-146.5 112z" />
<glyph unicode="&#xda;" horiz-adv-x="976" d="M131 457v954q0 17 8.5 20t59.5 3v-977q0 -51 2.5 -90.5t10 -84.5t20.5 -78t36 -64.5t54.5 -51t77.5 -31.5t104 -12q77 0 156 16t116 35v1317q0 15 11 18t59 3v-1387q-44 -26 -142.5 -46.5t-199.5 -20.5q-99 0 -169 26.5t-109 67.5t-61 108t-28 127.5t-6 147.5zM432 1651 q58 56 128 116t111.5 92.5t43.5 32.5q5 0 9.5 -4t8 -9.5t7 -13.5t5 -13.5t3.5 -11.5l2 -7q-5 -5 -44 -37t-111 -87t-136 -99q-3 0 -9.5 10t-11.5 20z" />
<glyph unicode="&#xdb;" horiz-adv-x="976" d="M131 457v954q0 17 8.5 20t59.5 3v-977q0 -51 2.5 -90.5t10 -84.5t20.5 -78t36 -64.5t54.5 -51t77.5 -31.5t104 -12q77 0 156 16t116 35v1317q0 15 11 18t59 3v-1387q-44 -26 -142.5 -46.5t-199.5 -20.5q-99 0 -169 26.5t-109 67.5t-61 108t-28 127.5t-6 147.5zM262 1645 l225 217q8 4 21 4q17 0 31 -17q198 -196 198 -202q0 -3 -7.5 -11t-21.5 -16t-28 -8q-170 180 -174 188q-179 -186 -195 -186q-15 0 -26.5 7t-16 13t-6.5 11z" />
<glyph unicode="&#xdc;" horiz-adv-x="976" d="M131 457v954q0 17 8.5 20t59.5 3v-977q0 -51 2.5 -90.5t10 -84.5t20.5 -78t36 -64.5t54.5 -51t77.5 -31.5t104 -12q77 0 156 16t116 35v1317q0 15 11 18t59 3v-1387q-44 -26 -142.5 -46.5t-199.5 -20.5q-99 0 -169 26.5t-109 67.5t-61 108t-28 127.5t-6 147.5zM299 1757 q0 28 16.5 48t44.5 20q30 0 49 -20t19 -48q0 -31 -19 -50t-49 -19q-61 0 -61 69zM586 1757q0 28 16.5 48t44.5 20q30 0 48 -19.5t18 -48.5q0 -31 -18.5 -50t-47.5 -19q-61 0 -61 69z" />
<glyph unicode="&#xdd;" horiz-adv-x="733" d="M12 1421q-3 9 7 11q11 2 67 2l115 -301q33 -83 75 -200.5t68.5 -197.5t26.5 -84q0 6 60 176.5t110 305.5l106 286q3 11 13.5 13t62.5 2l-320 -850v-561q0 -17 -8 -20t-59 -3v588zM301 1651q58 56 128 116t111.5 92.5t43.5 32.5q5 0 9.5 -4t8 -10t6.5 -13.5t5 -13.5t3 -12 l2 -6q-6 -6 -44.5 -37.5t-110 -86.5t-135.5 -99q-3 0 -9.5 10t-12.5 20z" />
<glyph unicode="&#xde;" horiz-adv-x="774" d="M131 0v1413q0 14 10 17.5t37 3.5h21v-273h176q93 0 161.5 -29.5t107 -83.5t56 -119t17.5 -145q0 -212 -93.5 -321t-263.5 -109h-161v-331q0 -17 -9 -20t-59 -3zM199 422q9 0 48.5 -0.5t76.5 -1.5h36q144 0 215.5 96t71.5 270q0 312 -276 312h-172v-676z" />
<glyph unicode="&#xdf;" horiz-adv-x="972" d="M119 -2q14 31 14 78v1048q0 169 81.5 243.5t231.5 74.5q104 0 183.5 -29t122.5 -74.5t63.5 -93t20.5 -92.5q0 -52 -30.5 -94t-74 -70.5t-87.5 -55.5t-74.5 -60.5t-30.5 -73.5q0 -32 22 -63t57 -57.5t77.5 -55.5t84.5 -63.5t77 -74t57 -94t22 -117.5q0 -143 -83 -217.5 t-228 -74.5q-53 0 -100 9t-76 22.5t-45.5 27.5t-16.5 25q0 16 9 31t14 18q76 -70 211 -70q109 0 177 55.5t68 169.5q0 62 -29.5 117.5t-73.5 93.5t-95.5 77.5t-95.5 72.5t-73.5 76.5t-29.5 89.5q0 51 30.5 92.5t74 69t87.5 54t74.5 62t30.5 78.5q0 37 -18 75t-53.5 72.5 t-98 56t-141.5 21.5q-131 0 -192.5 -69t-61.5 -228v-1052q0 -24 -8.5 -34.5t-30.5 -10.5q-12 0 -23 3.5t-15 6.5z" />
<glyph unicode="&#xe0;" horiz-adv-x="774" d="M86 279q0 84 19.5 146t49.5 96.5t76 55.5t89 27t98 6q112 0 182 -20v194q0 114 -49 154.5t-143 40.5q-102 0 -186.5 -16t-125.5 -37q-10 18 -10 37q0 25 12 32q37 19 130 34t196 15q121 0 181.5 -57t60.5 -190v-131q0 -310 -11 -611q-121 -75 -272 -75q-50 -1 -87.5 3 t-79 21.5t-68.5 48.5t-44.5 88.5t-17.5 137.5zM156 281q0 -48 7.5 -85.5t18 -62.5t30.5 -42.5t37.5 -26.5t45.5 -14t48.5 -6t53.5 -1q60 0 114.5 17t76.5 38q12 153 12 434q-73 21 -164 21q-41 0 -70.5 -3t-65 -11.5t-59 -27t-44.5 -47.5t-31 -75.5t-10 -107.5zM162 1438 q15 59 35 59q2 0 140 -116.5t142 -123.5q-20 -40 -26 -40q-1 0 -144.5 109t-146.5 112z" />
<glyph unicode="&#xe1;" horiz-adv-x="774" d="M86 279q0 84 19.5 146t49.5 96.5t76 55.5t89 27t98 6q112 0 182 -20v194q0 114 -49 154.5t-143 40.5q-102 0 -186.5 -16t-125.5 -37q-10 18 -10 37q0 25 12 32q37 19 130 34t196 15q121 0 181.5 -57t60.5 -190v-131q0 -310 -11 -611q-121 -75 -272 -75q-50 -1 -87.5 3 t-79 21.5t-68.5 48.5t-44.5 88.5t-17.5 137.5zM156 281q0 -48 7.5 -85.5t18 -62.5t30.5 -42.5t37.5 -26.5t45.5 -14t48.5 -6t53.5 -1q60 0 114.5 17t76.5 38q12 153 12 434q-73 21 -164 21q-41 0 -70.5 -3t-65 -11.5t-59 -27t-44.5 -47.5t-31 -75.5t-10 -107.5zM319 1241 q58 56 128 116t111.5 93t43.5 33q5 0 9.5 -4t8 -10t7 -14t5 -13.5t3.5 -11.5l2 -7q-5 -5 -44 -37t-111 -87t-136 -99q-3 0 -9.5 10t-12.5 20z" />
<glyph unicode="&#xe2;" horiz-adv-x="774" d="M86 279q0 84 19.5 146t49.5 96.5t76 55.5t89 27t98 6q112 0 182 -20v194q0 114 -49 154.5t-143 40.5q-102 0 -186.5 -16t-125.5 -37q-10 18 -10 37q0 25 12 32q37 19 130 34t196 15q121 0 181.5 -57t60.5 -190v-131q0 -310 -11 -611q-121 -75 -272 -75q-50 -1 -87.5 3 t-79 21.5t-68.5 48.5t-44.5 88.5t-17.5 137.5zM150 1235l225 217q8 4 20 4q18 0 31 -16q199 -197 199 -203q0 -3 -7.5 -11t-22 -16t-28.5 -8q-170 181 -174 189q-178 -187 -194 -187q-15 0 -26.5 7t-16 13t-6.5 11zM156 281q0 -48 7.5 -85.5t18 -62.5t30.5 -42.5t37.5 -26.5 t45.5 -14t48.5 -6t53.5 -1q60 0 114.5 17t76.5 38q12 153 12 434q-73 21 -164 21q-41 0 -70.5 -3t-65 -11.5t-59 -27t-44.5 -47.5t-31 -75.5t-10 -107.5z" />
<glyph unicode="&#xe3;" horiz-adv-x="774" d="M86 279q0 84 19.5 146t49.5 96.5t76 55.5t89 27t98 6q112 0 182 -20v194q0 114 -49 154.5t-143 40.5q-102 0 -186.5 -16t-125.5 -37q-10 18 -10 37q0 25 12 32q37 19 130 34t196 15q121 0 181.5 -57t60.5 -190v-131q0 -310 -11 -611q-121 -75 -272 -75q-50 -1 -87.5 3 t-79 21.5t-68.5 48.5t-44.5 88.5t-17.5 137.5zM104 1278q44 75 88 101t103 26q27 0 48.5 -11.5t36 -27.5t29 -32.5t35 -28t45.5 -11.5q39 0 68.5 16t42.5 35.5t24 35.5t17 16q9 0 17.5 -9.5t13.5 -19.5l4 -10q-13 -25 -25.5 -43.5t-35 -41t-56 -34.5t-74.5 -12 q-34 0 -61 12.5t-44 29.5t-31 34.5t-31 30t-37 12.5q-37 0 -66.5 -26t-46.5 -52.5t-23 -26.5q-9 0 -19 9.5t-16 18.5zM156 281q0 -48 7.5 -85.5t18 -62.5t30.5 -42.5t37.5 -26.5t45.5 -14t48.5 -6t53.5 -1q60 0 114.5 17t76.5 38q12 153 12 434q-73 21 -164 21 q-41 0 -70.5 -3t-65 -11.5t-59 -27t-44.5 -47.5t-31 -75.5t-10 -107.5z" />
<glyph unicode="&#xe4;" horiz-adv-x="774" d="M86 279q0 84 19.5 146t49.5 96.5t76 55.5t89 27t98 6q112 0 182 -20v194q0 114 -49 154.5t-143 40.5q-102 0 -186.5 -16t-125.5 -37q-10 18 -10 37q0 25 12 32q37 19 130 34t196 15q121 0 181.5 -57t60.5 -190v-131q0 -310 -11 -611q-121 -75 -272 -75q-50 -1 -87.5 3 t-79 21.5t-68.5 48.5t-44.5 88.5t-17.5 137.5zM156 281q0 -48 7.5 -85.5t18 -62.5t30.5 -42.5t37.5 -26.5t45.5 -14t48.5 -6t53.5 -1q60 0 114.5 17t76.5 38q12 153 12 434q-73 21 -164 21q-41 0 -70.5 -3t-65 -11.5t-59 -27t-44.5 -47.5t-31 -75.5t-10 -107.5zM186 1348 q0 28 17 47.5t45 19.5q30 0 48.5 -19.5t18.5 -47.5q0 -31 -19 -50.5t-48 -19.5q-30 0 -46 18.5t-16 51.5zM473 1348q0 28 17 47.5t45 19.5q30 0 47.5 -19t17.5 -48q0 -31 -18 -50.5t-47 -19.5q-30 0 -46 18.5t-16 51.5z" />
<glyph unicode="&#xe5;" horiz-adv-x="774" d="M86 279q0 84 19.5 146t49.5 96.5t76 55.5t89 27t98 6q112 0 182 -20v194q0 114 -49 154.5t-143 40.5q-102 0 -186.5 -16t-125.5 -37q-10 18 -10 37q0 25 12 32q37 19 130 34t196 15q121 0 181.5 -57t60.5 -190v-131q0 -310 -11 -611q-121 -75 -272 -75q-50 -1 -87.5 3 t-79 21.5t-68.5 48.5t-44.5 88.5t-17.5 137.5zM156 281q0 -48 7.5 -85.5t18 -62.5t30.5 -42.5t37.5 -26.5t45.5 -14t48.5 -6t53.5 -1q60 0 114.5 17t76.5 38q12 153 12 434q-73 21 -164 21q-41 0 -70.5 -3t-65 -11.5t-59 -27t-44.5 -47.5t-31 -75.5t-10 -107.5zM219 1368 q0 88 47.5 132t132.5 44t124.5 -40t39.5 -136q0 -84 -46.5 -129t-131.5 -45q-80 0 -123 40t-43 134zM279 1364q0 -53 27.5 -82t80.5 -29q117 0 117 117q0 63 -25.5 89t-77.5 26q-61 0 -91.5 -27.5t-30.5 -93.5z" />
<glyph unicode="&#xe6;" horiz-adv-x="1337" d="M86 281q0 84 19.5 146t49.5 97t76 56t89 27.5t98 6.5q112 0 182 -20v192q0 114 -51.5 154.5t-153.5 40.5q-188 0 -291 -61q-10 18 -10 38q0 10 6 20t13 13q91 53 307 53q113 0 171.5 -47t67.5 -159q25 66 61 110t80.5 63.5t83 26t89.5 6.5q256 0 256 -311 q0 -148 -17 -237q-88 -15 -184 -15q-167 0 -356 37v-69q0 -90 9 -157.5t28.5 -110.5t41.5 -70t56.5 -40.5t65 -17.5t75.5 -4q76 0 145.5 19.5t114.5 54.5q13 -29 13 -64q0 -12 -37 -29.5t-103 -31.5t-133 -14q-53 0 -91.5 5t-77 19t-67.5 42.5t-50 72.5v-78 q-35 -23 -106.5 -42t-172.5 -19q-51 -1 -87.5 2.5t-79 20t-68.5 47t-44 88.5t-18 139zM156 274q0 -63 14 -107.5t34 -68.5t55 -36.5t64 -15.5t74 -3q62 0 121.5 15t81.5 36v443q-70 20 -164 20q-35 0 -61 -2t-56.5 -9t-53 -18.5t-44 -33t-35 -50.5t-22 -72.5t-8.5 -97.5z M676 578q222 -39 344 -39q72 0 133 12q8 76 8 158q-2 141 -42.5 206.5t-147.5 65.5q-29 0 -51 -2.5t-51.5 -11.5t-52 -25t-47.5 -46.5t-42 -72t-31 -104t-20 -141.5z" />
<glyph unicode="&#xe7;" horiz-adv-x="708" d="M96 489q0 102 12 185t32 140t50 99.5t61.5 67t70.5 39.5t73 19.5t74 4.5q66 0 119 -22.5t53 -50.5q0 -25 -14 -45q-67 55 -170 55q-31 0 -56.5 -4t-56.5 -17t-55.5 -34.5t-48.5 -59.5t-40 -89.5t-26 -127t-10 -168.5q0 -136 18 -225.5t54.5 -134.5t79 -61.5t104.5 -16.5 q69 0 124 22t87 54q12 -21 12 -45q0 -29 -62 -59.5t-151 -34.5l-20 -105q9 4 36 4q40 0 69.5 -27t29.5 -81q0 -77 -39.5 -110.5t-93.5 -33.5q-24 0 -50 3.5t-40 7.5l-13 4q5 41 17 53q10 5 19 2.5t30 -8.5t37 -6q75 0 75 75q0 43 -20 58.5t-53 15.5q-16 0 -34.5 -3t-29.5 -6 l-10 -3l33 162q-51 3 -89 15.5t-75 46t-60.5 88t-38 144.5t-14.5 213z" />
<glyph unicode="&#xe8;" horiz-adv-x="790" d="M92 453q0 112 12 202t32 151t50 105.5t60 69.5t69.5 40t71.5 19t72 4q256 0 256 -321q0 -133 -15 -227q-188 -37 -477 -37h-63v-10q0 -106 14 -181t37 -118t61 -67t75 -31t91 -7q160 0 258 76q11 -28 11 -51q0 -30 -84.5 -60t-188.5 -30q-54 0 -94 6t-81.5 23.5t-70 50.5 t-51.5 84t-34 129t-11 180zM160 520q341 0 481 31q8 76 8 149q-3 141 -44.5 211t-145.5 70q-31 0 -54.5 -2.5t-54.5 -13.5t-54.5 -29.5t-48.5 -53t-42 -82t-29.5 -119t-15.5 -161.5zM215 1438q15 59 35 59q2 0 140 -116.5t142 -123.5q-20 -40 -26 -40q-1 0 -144.5 109 t-146.5 112z" />
<glyph unicode="&#xe9;" horiz-adv-x="790" d="M92 453q0 112 12 202t32 151t50 105.5t60 69.5t69.5 40t71.5 19t72 4q256 0 256 -321q0 -133 -15 -227q-188 -37 -477 -37h-63v-10q0 -106 14 -181t37 -118t61 -67t75 -31t91 -7q160 0 258 76q11 -28 11 -51q0 -30 -84.5 -60t-188.5 -30q-54 0 -94 6t-81.5 23.5t-70 50.5 t-51.5 84t-34 129t-11 180zM160 520q341 0 481 31q8 76 8 149q-3 141 -44.5 211t-145.5 70q-31 0 -54.5 -2.5t-54.5 -13.5t-54.5 -29.5t-48.5 -53t-42 -82t-29.5 -119t-15.5 -161.5zM375 1241q58 56 128 116t111 93t43 33q5 0 9.5 -4t8 -10t7 -14t5 -13.5t3.5 -11.5l2 -7 q-5 -5 -44 -37t-111 -87t-136 -99q-3 0 -9.5 10t-11.5 20z" />
<glyph unicode="&#xea;" horiz-adv-x="790" d="M92 453q0 112 12 202t32 151t50 105.5t60 69.5t69.5 40t71.5 19t72 4q256 0 256 -321q0 -133 -15 -227q-188 -37 -477 -37h-63v-10q0 -106 14 -181t37 -118t61 -67t75 -31t91 -7q160 0 258 76q11 -28 11 -51q0 -30 -84.5 -60t-188.5 -30q-54 0 -94 6t-81.5 23.5t-70 50.5 t-51.5 84t-34 129t-11 180zM160 520q341 0 481 31q8 76 8 149q-3 141 -44.5 211t-145.5 70q-31 0 -54.5 -2.5t-54.5 -13.5t-54.5 -29.5t-48.5 -53t-42 -82t-29.5 -119t-15.5 -161.5zM203 1235l225 217q8 4 21 4q17 0 30 -16q199 -197 199 -203q0 -3 -7.5 -11t-21.5 -16 t-28 -8q-171 181 -175 189q-178 -187 -194 -187q-15 0 -26.5 7t-16 13t-6.5 11z" />
<glyph unicode="&#xeb;" horiz-adv-x="790" d="M92 453q0 112 12 202t32 151t50 105.5t60 69.5t69.5 40t71.5 19t72 4q256 0 256 -321q0 -133 -15 -227q-188 -37 -477 -37h-63v-10q0 -106 14 -181t37 -118t61 -67t75 -31t91 -7q160 0 258 76q11 -28 11 -51q0 -30 -84.5 -60t-188.5 -30q-54 0 -94 6t-81.5 23.5t-70 50.5 t-51.5 84t-34 129t-11 180zM160 520q341 0 481 31q8 76 8 149q-3 141 -44.5 211t-145.5 70q-31 0 -54.5 -2.5t-54.5 -13.5t-54.5 -29.5t-48.5 -53t-42 -82t-29.5 -119t-15.5 -161.5zM240 1348q0 28 16.5 47.5t44.5 19.5q30 0 49 -19.5t19 -47.5q0 -31 -19.5 -50.5 t-48.5 -19.5q-61 0 -61 70zM526 1348q0 28 17 47.5t45 19.5q30 0 47.5 -19t17.5 -48q0 -31 -18 -50.5t-47 -19.5q-30 0 -46 18.5t-16 51.5z" />
<glyph unicode="&#xec;" horiz-adv-x="342" d="M-61 1438q15 59 34 59q2 0 140.5 -116.5t142.5 -123.5q-21 -40 -27 -40q-1 0 -144 109t-146 112zM135 0v987q0 26 14.5 31.5t57.5 5.5v-1001q0 -17 -9.5 -20t-62.5 -3z" />
<glyph unicode="&#xed;" horiz-adv-x="342" d="M98 1241q58 56 128 116t111.5 93t43.5 33q5 0 9.5 -4t8 -10t7 -14t5 -13.5t3.5 -11.5l2 -7q-5 -5 -44 -37t-111 -87t-136 -99q-3 0 -9.5 10t-11.5 20zM135 0v987q0 26 14.5 31.5t57.5 5.5v-1001q0 -17 -9.5 -20t-62.5 -3z" />
<glyph unicode="&#xee;" horiz-adv-x="342" d="M-74 1235l226 217q8 4 20 4q18 0 31 -16q198 -197 198 -203q0 -3 -7.5 -11t-21.5 -16t-28 -8q-170 181 -174 189q-179 -187 -195 -187q-15 0 -26.5 7t-16 13t-6.5 11zM135 0v987q0 26 14.5 31.5t57.5 5.5v-1001q0 -17 -9.5 -20t-62.5 -3z" />
<glyph unicode="&#xef;" horiz-adv-x="342" d="M-35 1348q0 28 17 47.5t45 19.5q30 0 48.5 -19.5t18.5 -47.5q0 -31 -19 -50.5t-48 -19.5q-30 0 -46 18.5t-16 51.5zM135 0v987q0 26 14.5 31.5t57.5 5.5v-1001q0 -17 -9.5 -20t-62.5 -3zM252 1348q0 28 16.5 47.5t44.5 19.5q30 0 48 -19t18 -48q0 -31 -18.5 -50.5 t-47.5 -19.5q-61 0 -61 70z" />
<glyph unicode="&#xf0;" horiz-adv-x="913" d="M96 524q0 255 94.5 385.5t274.5 130.5q174 0 262 -116q-53 223 -199 391l-194 -78q-8 22 -11 31t-4 18.5t2 13t11 7.5l147 59q-54 54 -145 121q4 17 16.5 26t26.5 9q18 0 31 -13q76 -55 137 -116l168 67q20 -51 16 -60q-3 -5 -12 -9l-123 -50q121 -140 178 -323t57 -426 q0 -73 -3.5 -134t-14 -125.5t-27 -115t-44.5 -96t-65 -76t-90 -48t-118 -17.5q-185 0 -278 131t-93 413zM164 520q0 -477 303 -477q55 0 99.5 17t74.5 45.5t52.5 72.5t35.5 90t20.5 107t10 114.5t2.5 120.5q0 102 -12 193q-101 174 -277 174q-148 0 -228.5 -115.5 t-80.5 -341.5z" />
<glyph unicode="&#xf1;" horiz-adv-x="851" d="M131 0v971q169 73 336 73q83 0 138 -18t85 -56.5t41.5 -88.5t11.5 -125v-733q0 -17 -9 -20t-60 -3v741q0 131 -42 185.5t-165 54.5q-62 0 -138.5 -15t-131.5 -42v-901q0 -17 -9 -20t-57 -3zM172 1278q44 75 87.5 101t102.5 26q33 0 59 -17.5t41 -38t39.5 -38t55.5 -17.5 q39 0 68.5 16t42.5 35.5t24 35.5t17 16q9 0 17.5 -9.5t12.5 -19.5l4 -10q-13 -26 -25.5 -44t-35 -40.5t-55.5 -34.5t-74 -12q-34 0 -61 12.5t-44 29.5t-31.5 34.5t-31.5 30t-37 12.5q-29 0 -54 -16.5t-38.5 -36t-25.5 -36t-17 -16.5q-9 0 -19 9.5t-16 18.5z" />
<glyph unicode="&#xf2;" horiz-adv-x="811" d="M76 508q0 536 342 536q82 0 138.5 -24.5t98 -84.5t61 -164.5t19.5 -260.5q0 -265 -87.5 -397.5t-252.5 -132.5q-64 0 -108 10.5t-87 42.5t-68 89t-40.5 153.5t-15.5 232.5zM145 496q0 -109 11 -188t31 -130t52.5 -81t69.5 -42t88 -12q127 0 198 117.5t71 355.5 q0 138 -16.5 231t-50.5 143.5t-77.5 70.5t-105.5 20q-64 0 -112 -25t-84.5 -80t-55.5 -150.5t-19 -229.5zM186 1438q15 59 35 59q2 0 140.5 -116.5t142.5 -123.5q-21 -40 -27 -40q-1 0 -144.5 109t-146.5 112z" />
<glyph unicode="&#xf3;" horiz-adv-x="811" d="M76 508q0 536 342 536q82 0 138.5 -24.5t98 -84.5t61 -164.5t19.5 -260.5q0 -265 -87.5 -397.5t-252.5 -132.5q-64 0 -108 10.5t-87 42.5t-68 89t-40.5 153.5t-15.5 232.5zM145 496q0 -109 11 -188t31 -130t52.5 -81t69.5 -42t88 -12q127 0 198 117.5t71 355.5 q0 138 -16.5 231t-50.5 143.5t-77.5 70.5t-105.5 20q-64 0 -112 -25t-84.5 -80t-55.5 -150.5t-19 -229.5zM346 1241q58 56 128 116t111.5 93t43.5 33q5 0 9.5 -4t8 -10t7 -14t5 -13.5t3.5 -11.5l2 -7q-5 -5 -44 -37t-111 -87t-136 -99q-3 0 -9.5 10t-11.5 20z" />
<glyph unicode="&#xf4;" horiz-adv-x="811" d="M76 508q0 536 342 536q82 0 138.5 -24.5t98 -84.5t61 -164.5t19.5 -260.5q0 -265 -87.5 -397.5t-252.5 -132.5q-64 0 -108 10.5t-87 42.5t-68 89t-40.5 153.5t-15.5 232.5zM145 496q0 -109 11 -188t31 -130t52.5 -81t69.5 -42t88 -12q127 0 198 117.5t71 355.5 q0 138 -16.5 231t-50.5 143.5t-77.5 70.5t-105.5 20q-64 0 -112 -25t-84.5 -80t-55.5 -150.5t-19 -229.5zM174 1235l225 217q8 4 21 4q18 0 31 -16q198 -197 198 -203q0 -3 -7.5 -11t-21.5 -16t-28 -8q-170 181 -174 189q-179 -187 -195 -187q-15 0 -26.5 7t-16 13t-6.5 11z " />
<glyph unicode="&#xf5;" horiz-adv-x="811" d="M76 508q0 536 342 536q82 0 138.5 -24.5t98 -84.5t61 -164.5t19.5 -260.5q0 -265 -87.5 -397.5t-252.5 -132.5q-64 0 -108 10.5t-87 42.5t-68 89t-40.5 153.5t-15.5 232.5zM131 1278q44 75 88 101t103 26q27 0 48.5 -11.5t36 -27.5t29 -32.5t35 -28t45.5 -11.5 q39 0 68.5 16t42.5 35.5t24 35.5t17 16q9 0 17.5 -9.5t12.5 -19.5l4 -10q-13 -26 -25.5 -44t-35 -40.5t-55.5 -34.5t-74 -12q-34 0 -61 12.5t-44 29.5t-31.5 34.5t-31.5 30t-37 12.5q-29 0 -54 -16.5t-38.5 -36t-25.5 -36t-17 -16.5q-9 0 -19 9.5t-16 18.5zM145 496 q0 -109 11 -188t31 -130t52.5 -81t69.5 -42t88 -12q127 0 198 117.5t71 355.5q0 138 -16.5 231t-50.5 143.5t-77.5 70.5t-105.5 20q-64 0 -112 -25t-84.5 -80t-55.5 -150.5t-19 -229.5z" />
<glyph unicode="&#xf6;" horiz-adv-x="811" d="M76 508q0 536 342 536q82 0 138.5 -24.5t98 -84.5t61 -164.5t19.5 -260.5q0 -265 -87.5 -397.5t-252.5 -132.5q-64 0 -108 10.5t-87 42.5t-68 89t-40.5 153.5t-15.5 232.5zM145 496q0 -109 11 -188t31 -130t52.5 -81t69.5 -42t88 -12q127 0 198 117.5t71 355.5 q0 138 -16.5 231t-50.5 143.5t-77.5 70.5t-105.5 20q-64 0 -112 -25t-84.5 -80t-55.5 -150.5t-19 -229.5zM213 1348q0 28 16.5 47.5t44.5 19.5q30 0 49 -19.5t19 -47.5q0 -31 -19.5 -50.5t-48.5 -19.5q-61 0 -61 70zM500 1348q0 28 16.5 47.5t44.5 19.5q30 0 48 -19t18 -48 q0 -31 -18.5 -50.5t-47.5 -19.5q-61 0 -61 70z" />
<glyph unicode="&#xf7;" d="M98 543q0 25 0.5 34.5t2.5 19t6.5 11.5t13.5 2h694v-7q0 -39 -3 -49.5t-19 -10.5h-695zM385 303q0 29 17.5 48.5t46.5 19.5q30 0 47.5 -19.5t17.5 -48.5q0 -31 -18 -50.5t-47 -19.5q-30 0 -47 19.5t-17 50.5zM385 840q0 28 17.5 47.5t46.5 19.5q30 0 47.5 -19t17.5 -48 q0 -31 -18 -50.5t-47 -19.5q-30 0 -47 19.5t-17 50.5z" />
<glyph unicode="&#xf8;" horiz-adv-x="888" d="M78 -6q0 5 94 156q-45 124 -45 358q0 536 338 536q157 0 229 -100l78 125q45 -10 45 -33q0 -6 -90 -149q57 -126 57 -377q0 -264 -84.5 -397t-240.5 -133q-93 0 -155.5 23.5t-102.5 86.5q-12 -21 -32.5 -53.5t-34 -53.5t-13.5 -22q-4 0 -13 2.5t-19.5 10.5t-10.5 20z M197 496q0 -194 32 -289l418 684q-54 90 -180 90q-86 0 -143.5 -44t-92 -154t-34.5 -287zM252 147q56 -104 197 -104q127 0 196.5 117.5t69.5 355.5q0 211 -41 320q-276 -460 -422 -689z" />
<glyph unicode="&#xf9;" horiz-adv-x="894" d="M141 369v632q0 17 8 20t60 3v-668q0 -183 50 -248t196 -65q50 0 115 13t116 42v903q0 17 11 20t57 3v-977q-137 -67 -314 -67q-175 0 -237 85t-62 304zM223 1438q15 59 35 59q2 0 140.5 -116.5t142.5 -123.5q-21 -40 -27 -40q-1 0 -144.5 109t-146.5 112z" />
<glyph unicode="&#xfa;" horiz-adv-x="894" d="M141 369v632q0 17 8 20t60 3v-668q0 -183 50 -248t196 -65q50 0 115 13t116 42v903q0 17 11 20t57 3v-977q-137 -67 -314 -67q-175 0 -237 85t-62 304zM383 1241q58 56 128 116t111.5 93t43.5 33q5 0 9.5 -4t8 -10t6.5 -14t5 -14t3 -12l2 -6q-6 -6 -44.5 -37.5 t-110 -86.5t-135.5 -99q-3 0 -9.5 10t-12.5 20z" />
<glyph unicode="&#xfb;" horiz-adv-x="894" d="M141 369v632q0 17 8 20t60 3v-668q0 -183 50 -248t196 -65q50 0 115 13t116 42v903q0 17 11 20t57 3v-977q-137 -67 -314 -67q-175 0 -237 85t-62 304zM213 1235l225 217q8 4 21 4q17 0 30 -16q199 -197 199 -203q0 -3 -7.5 -11t-21.5 -16t-28 -8q-170 181 -174 189 q-179 -187 -195 -187q-15 0 -26.5 7t-16 13t-6.5 11z" />
<glyph unicode="&#xfc;" horiz-adv-x="894" d="M141 369v632q0 17 8 20t60 3v-668q0 -183 50 -248t196 -65q50 0 115 13t116 42v903q0 17 11 20t57 3v-977q-137 -67 -314 -67q-175 0 -237 85t-62 304zM250 1348q0 28 16.5 47.5t44.5 19.5q30 0 49 -19.5t19 -47.5q0 -31 -19.5 -50.5t-48.5 -19.5q-61 0 -61 70zM537 1348 q0 28 16.5 47.5t44.5 19.5q30 0 48 -19t18 -48q0 -31 -18.5 -50.5t-47.5 -19.5q-61 0 -61 70z" />
<glyph unicode="&#xfd;" horiz-adv-x="780" d="M12 -350q0 28 19 43q52 -25 116 -25q149 0 220 299l-281 1032q-6 19 2 22t59 3l191 -696q16 -63 32 -134t24 -111l7 -40q23 144 60 287l174 669q4 19 13 22t63 3l-287 -1094q-48 -176 -115 -250.5t-162 -74.5q-61 0 -98 12t-37 33zM334 1241q58 56 128 116t111 93t43 33 q5 0 9.5 -4t8 -10t7 -14t5 -13.5t3.5 -11.5l2 -7q-5 -5 -44 -37t-111 -87t-136 -99q-3 0 -9.5 10t-11.5 20z" />
<glyph unicode="&#xfe;" horiz-adv-x="845" d="M135 -387v1855q0 26 12.5 31.5t55.5 5.5v-506q94 43 225 43q84 0 144.5 -21.5t105.5 -72.5t67.5 -139.5t22.5 -216.5q0 -112 -14.5 -204.5t-38 -154.5t-57 -109t-67 -73t-72 -42.5t-68.5 -21.5t-60 -5q-127 0 -188 73v-461q-12 -4 -37 -4q-18 0 -24.5 4.5t-6.5 18.5z M203 137q60 -92 178 -92q24 0 48.5 5t57 20t60.5 38.5t56.5 65t49 95.5t33 134t12.5 177q0 117 -18.5 196.5t-55.5 123t-83.5 61.5t-110.5 18q-129 0 -227 -64v-778z" />
<glyph unicode="&#xff;" horiz-adv-x="780" d="M12 -350q0 28 19 43q52 -25 116 -25q149 0 220 299l-281 1032q-6 19 2 22t59 3l191 -696q11 -45 23 -97t19.5 -87t13.5 -66t7 -33q24 144 60 285l174 669q4 19 13 22t63 3l-287 -1094q-48 -176 -115 -250.5t-162 -74.5q-61 0 -98 12t-37 33zM201 1348q0 28 16.5 47.5 t44.5 19.5q30 0 49 -19.5t19 -47.5q0 -31 -19.5 -50.5t-48.5 -19.5q-61 0 -61 70zM487 1348q0 28 17 47.5t45 19.5q30 0 47.5 -19t17.5 -48q0 -31 -18 -50.5t-47 -19.5q-30 0 -46 18.5t-16 51.5z" />
<glyph unicode="&#x152;" horiz-adv-x="1347" d="M92 727q0 386 94 556.5t295 170.5q107 0 177.5 -46t109.5 -146v149q0 23 23 23h485q0 -44 -2 -55t-12 -11h-431v-551h404q0 -42 -2.5 -52.5t-15.5 -10.5h-386v-688h449q0 -46 -2.5 -56t-17.5 -10h-492v197q-42 -114 -116 -165.5t-189 -51.5q-134 0 -213 68.5t-118.5 232 t-39.5 446.5zM162 700q0 -240 32 -383t97 -206.5t172 -63.5q167 0 233 152.5t66 533.5q0 248 -26.5 389t-86.5 204t-166 63q-110 0 -179.5 -66t-105.5 -219t-36 -404z" />
<glyph unicode="&#x153;" horiz-adv-x="1392" d="M94 508q0 536 338 536q116 0 187.5 -53.5t105.5 -183.5q20 64 49.5 110t59.5 70t71.5 37.5t72.5 16.5t75 3q256 0 256 -311q0 -143 -15 -237q-188 -37 -477 -37h-63v-10q0 -78 7.5 -138.5t19.5 -103t32.5 -72.5t41.5 -47.5t51.5 -27t58 -12.5t65.5 -3q162 0 260 76 q10 -25 10 -66q0 -12 -36.5 -29.5t-102.5 -31.5t-133 -14q-62 0 -106 8t-88 30t-74.5 67.5t-48.5 115.5q-78 -221 -285 -221q-47 0 -83 5t-72 19t-62 38t-49 64t-36.5 95t-21.5 132t-8 175zM164 496q0 -109 11 -188t31 -130t52.5 -81t69.5 -42t88 -12q124 0 194 111.5 t74 337.5v24q0 138 -16.5 231t-50.5 143.5t-77.5 70.5t-105.5 20q-86 0 -143.5 -44t-92 -154t-34.5 -287zM754 520q341 0 481 31q8 76 8 158q-3 141 -44 206.5t-148 65.5q-33 0 -54 -1.5t-53.5 -11t-54.5 -26.5t-48 -51t-42.5 -82t-29 -121.5t-15.5 -167.5z" />
<glyph unicode="&#x178;" horiz-adv-x="733" d="M12 1421q-3 9 7 11q11 2 67 2l115 -301q33 -83 75 -200.5t68.5 -197.5t26.5 -84q0 6 60 176.5t110 305.5l106 286q3 11 13.5 13t62.5 2l-320 -850v-561q0 -17 -8 -20t-59 -3v588zM168 1757q0 28 16.5 48t44.5 20q30 0 49 -20t19 -48q0 -31 -19.5 -50t-48.5 -19 q-61 0 -61 69zM455 1757q0 28 16.5 48t44.5 20q30 0 48 -19.5t18 -48.5q0 -31 -18.5 -50t-47.5 -19q-61 0 -61 69z" />
<glyph unicode="&#x2c6;" horiz-adv-x="475" d="M0 1235l225 217q8 4 21 4q17 0 30 -16q199 -197 199 -203q0 -3 -7.5 -11t-21.5 -16t-28 -8q-170 181 -174 189q-179 -187 -195 -187q-15 0 -26.5 7t-16 13t-6.5 11z" />
<glyph unicode="&#x2dc;" horiz-adv-x="571" d="M0 1278q44 75 87.5 101t102.5 26q33 0 59 -17.5t41 -38t39.5 -38t55.5 -17.5q39 0 68.5 16t42.5 35.5t24 35.5t17 16q9 0 17.5 -9.5t12.5 -19.5l4 -10q-13 -26 -25.5 -44t-35 -40.5t-55.5 -34.5t-74 -12q-34 0 -61 12.5t-44 29.5t-31.5 34.5t-31.5 30t-37 12.5 q-29 0 -54 -16.5t-38.5 -36t-25.5 -36t-17 -16.5q-9 0 -19 9.5t-16 18.5z" />
<glyph unicode="&#x2000;" horiz-adv-x="977" />
<glyph unicode="&#x2001;" horiz-adv-x="1954" />
<glyph unicode="&#x2002;" horiz-adv-x="977" />
<glyph unicode="&#x2003;" horiz-adv-x="1954" />
<glyph unicode="&#x2004;" horiz-adv-x="651" />
<glyph unicode="&#x2005;" horiz-adv-x="488" />
<glyph unicode="&#x2006;" horiz-adv-x="325" />
<glyph unicode="&#x2007;" horiz-adv-x="325" />
<glyph unicode="&#x2008;" horiz-adv-x="244" />
<glyph unicode="&#x2009;" horiz-adv-x="390" />
<glyph unicode="&#x200a;" horiz-adv-x="108" />
<glyph unicode="&#x2010;" horiz-adv-x="614" d="M98 543q0 25 0.5 34.5t2.5 19t6.5 11.5t13.5 2h395v-7q0 -39 -3 -49.5t-19 -10.5h-396z" />
<glyph unicode="&#x2011;" horiz-adv-x="614" d="M98 543q0 25 0.5 34.5t2.5 19t6.5 11.5t13.5 2h395v-7q0 -39 -3 -49.5t-19 -10.5h-396z" />
<glyph unicode="&#x2012;" horiz-adv-x="614" d="M98 543q0 25 0.5 34.5t2.5 19t6.5 11.5t13.5 2h395v-7q0 -39 -3 -49.5t-19 -10.5h-396z" />
<glyph unicode="&#x2013;" horiz-adv-x="913" d="M98 543q0 25 0.5 34.5t2.5 19t6.5 11.5t13.5 2h694v-7q0 -39 -3 -49.5t-19 -10.5h-695z" />
<glyph unicode="&#x2014;" horiz-adv-x="1433" d="M12 543q0 25 0.5 34.5t2.5 19t6.5 11.5t13.5 2h1386v-7q0 -39 -3 -49.5t-19 -10.5h-1387z" />
<glyph unicode="&#x2018;" horiz-adv-x="299" d="M84 1270q0 86 38 215t60 129q10 0 20.5 -9t12.5 -20q-23 -53 -34 -128.5t-9 -133.5q33 -18 33 -66q0 -29 -17 -46t-45 -17q-30 0 -44.5 16.5t-14.5 59.5z" />
<glyph unicode="&#x2019;" horiz-adv-x="299" d="M84 1204q23 52 34 128.5t9 133.5q-33 22 -33 66q0 29 17 47t45 18q30 0 45.5 -16.5t15.5 -60.5q0 -84 -39 -213t-61 -129q-11 0 -21.5 8t-11.5 18z" />
<glyph unicode="&#x201a;" horiz-adv-x="299" d="M84 -199q23 52 34 128.5t9 133.5q-33 22 -33 66q0 29 17 47.5t45 18.5q30 0 45.5 -17t15.5 -61q0 -84 -39 -214t-61 -130q-11 0 -21.5 9t-11.5 19z" />
<glyph unicode="&#x201c;" horiz-adv-x="563" d="M84 1270q0 86 38 215t60 129q10 0 20.5 -9t12.5 -20q-23 -53 -34 -128.5t-9 -133.5q33 -18 33 -66q0 -29 -17 -46t-45 -17q-30 0 -44.5 16.5t-14.5 59.5zM348 1270q0 86 38 215t60 129q10 0 20.5 -9t12.5 -20q-23 -53 -34 -128.5t-9 -133.5q33 -18 33 -66 q0 -29 -16.5 -46t-44.5 -17q-30 0 -45 16.5t-15 59.5z" />
<glyph unicode="&#x201d;" horiz-adv-x="563" d="M84 1204q23 52 34 128.5t9 133.5q-33 22 -33 66q0 29 17 47t45 18q30 0 45.5 -16.5t15.5 -60.5q0 -84 -39 -213t-61 -129q-11 0 -21.5 8t-11.5 18zM348 1204q23 52 34 128.5t9 133.5q-33 22 -33 66q0 29 17 47t45 18q30 0 44.5 -16t14.5 -61q0 -84 -38 -213t-60 -129 q-11 0 -21.5 8t-11.5 18z" />
<glyph unicode="&#x201e;" horiz-adv-x="563" d="M84 -199q23 52 34 128.5t9 133.5q-33 22 -33 66q0 29 17 47.5t45 18.5q30 0 45.5 -17t15.5 -61q0 -84 -39 -214t-61 -130q-11 0 -21.5 9t-11.5 19zM348 -199q23 52 34 128.5t9 133.5q-33 22 -33 66q0 29 17 47.5t45 18.5q30 0 44.5 -16.5t14.5 -61.5q0 -84 -38 -214 t-60 -130q-11 0 -21.5 9t-11.5 19z" />
<glyph unicode="&#x2022;" horiz-adv-x="419" d="M123 575q0 46 27 78.5t73 32.5q48 0 77.5 -32.5t29.5 -78.5q0 -50 -30 -82t-77 -32q-48 0 -74 31t-26 83z" />
<glyph unicode="&#x2026;" horiz-adv-x="940" d="M102 63q0 29 18 49.5t46 20.5q31 0 50.5 -20.5t19.5 -49.5q0 -31 -19.5 -51t-50.5 -20q-30 0 -47 19t-17 52zM403 63q0 29 18 49.5t46 20.5q31 0 50.5 -20.5t19.5 -49.5q0 -31 -19.5 -51t-50.5 -20q-30 0 -47 19t-17 52zM702 63q0 29 18 49.5t46 20.5q31 0 50.5 -20.5 t19.5 -49.5q0 -31 -19.5 -51t-50.5 -20q-30 0 -47 19t-17 52z" />
<glyph unicode="&#x202f;" horiz-adv-x="390" />
<glyph unicode="&#x2039;" horiz-adv-x="542" d="M76 512q0 17 77 145t155 247l77 120q12 0 22.5 -8.5t15.5 -17.5l5 -9q0 -16 -72 -135t-144 -230l-71 -112q295 -440 295 -467q-17 -45 -37 -45q-323 469 -323 512z" />
<glyph unicode="&#x203a;" horiz-adv-x="542" d="M104 45q0 11 73.5 128t147.5 228l74 111q-284 442 -284 477q0 11 10.5 20t21.5 12l11 3q309 -473 309 -512q0 -19 -80.5 -147t-160.5 -247l-81 -118q-2 0 -4.5 1t-9.5 4.5t-12.5 8t-10 13t-4.5 18.5z" />
<glyph unicode="&#x205f;" horiz-adv-x="488" />
<glyph unicode="&#x20ac;" d="M53 451q0 35 6.5 47t28.5 12h154v37q0 119 8 198h-197q0 35 6.5 47.5t28.5 12.5h168q15 110 45.5 191.5t66.5 127t83.5 72.5t88.5 35t91 8q55 0 101.5 -16.5t67.5 -33.5t21 -26q0 -36 -18 -47q-10 8 -29.5 19.5t-58 25t-74.5 13.5q-29 0 -53 -2.5t-53 -12t-52.5 -25 t-48 -43.5t-43.5 -66t-35 -94t-26 -126h366q0 -36 -5.5 -48t-26.5 -12h-342q-9 -89 -9 -204v-31h301q0 -36 -6 -47.5t-28 -11.5h-265q4 -78 15.5 -140t27 -103.5t38.5 -72t45.5 -47t52.5 -26.5t54 -12.5t56 -2.5q61 0 121.5 27t91.5 63q17 -28 17 -51q0 -27 -76 -66.5 t-162 -39.5q-47 0 -82.5 5.5t-76.5 21.5t-71.5 49t-57.5 83t-43 129.5t-21 182.5h-191z" />
<glyph unicode="&#x2122;" horiz-adv-x="1128" d="M78 1380v33q0 9 5 14t10 6l5 1h437v-33q0 -9 -5.5 -14t-10.5 -6l-5 -1h-172v-575q0 -14 -7 -16.5t-46 -2.5v594h-211zM582 786v627q0 21 20 21h29l114 -306l58 -139q47 129 49 135l111 289q0 2 1.5 6.5t6.5 9.5t12 5h35v-627q0 -15 -7 -18t-48 -3v238q1 3 1.5 46.5t1 106 t1.5 93.5q-11 -29 -27 -69.5t-25.5 -64t-9.5 -24.5l-76 -197q-7 -10 -12 -10h-43l-80 207q-1 1 -9.5 22.5t-23.5 61t-26 66.5q0 -21 0.5 -79t1 -108.5t0.5 -52.5v-215q0 -15 -7 -18t-48 -3z" />
<glyph unicode="&#xe000;" horiz-adv-x="1024" d="M0 0v1024h1024v-1024h-1024z" />
<glyph unicode="&#xfb03;" horiz-adv-x="1277" d="M37 961q0 46 2.5 54.5t19.5 8.5h146v158q0 65 13 116.5t32.5 84.5t49.5 57.5t56.5 36.5t61.5 18.5t56 8t48 1.5q120 0 217 -69q46 48 108 64t142 16q84 0 134.5 -15t50.5 -39q0 -8 -11 -41q-82 29 -176 29q-42 0 -72.5 -4t-68.5 -21.5t-62 -47.5t-40.5 -87.5 t-16.5 -136.5v-129h199q0 -45 -3 -54t-20 -9h-176v-938q1 -23 -22 -23h-46v961h-387v-938q1 -23 -22 -23h-45v961h-168zM272 1024h387v135q0 140 43 221q-76 62 -192 62q-31 0 -55.5 -2.5t-61 -17.5t-61 -41t-42.5 -78.5t-18 -124.5v-154zM1071 0v987q0 26 12.5 31.5 t55.5 5.5v-1001q0 -17 -8.5 -20t-59.5 -3z" />
<glyph unicode="&#xfb04;" horiz-adv-x="1296" d="M37 961q0 46 2.5 54.5t19.5 8.5h146v158q0 65 13 116.5t32.5 84.5t49.5 57.5t56.5 36.5t61.5 18.5t56 8t48 1.5q115 0 213 -67q39 47 92.5 61t124.5 14q119 0 207 -45v-1445q0 -18 -7.5 -20.5t-59.5 -2.5v1425q-66 23 -138 23q-29 0 -46.5 -1t-44.5 -6.5t-43.5 -16 t-36 -31t-30.5 -50t-18.5 -74.5t-7.5 -102v-143h199q0 -45 -3 -54t-20 -9h-176v-938q1 -23 -22 -23h-46v961h-387v-938q1 -23 -22 -23h-45v961h-168zM272 1024h387v135q0 142 39 225q-72 58 -188 58q-31 0 -55.5 -2.5t-61 -17.5t-61 -41t-42.5 -78.5t-18 -124.5v-154z" />
</font>
</defs>
</svg>
